/* XPM */
static char * ship2v_xpm[] = {
"33 67 74 1",
" 	c None",
".	c #797B82",
"+	c #9B9EA7",
"@	c #AAADB7",
"#	c #BCBFCB",
"$	c #CED1DE",
"%	c #A9ACB6",
"&	c #CDD0DD",
"*	c #CBCEDB",
"=	c #94969F",
"-	c #CCCFDC",
";	c #9C9EA7",
">	c #77797F",
",	c #9C9EA8",
"'	c #BCBECA",
")	c #BBBECA",
"!	c #9598A0",
"~	c #7A7C83",
"{	c #7C7E84",
"]	c #7C7E85",
"^	c #9597A0",
"/	c #CDD1DE",
"(	c #7D7F86",
"_	c #7E8087",
":	c #AAACB7",
"<	c #A9ABB6",
"[	c #BDC0CC",
"}	c #CFD2DF",
"|	c #7F8188",
"1	c #BEC0CC",
"2	c #787980",
"3	c #707178",
"4	c #BEC1CD",
"5	c #ABAEB8",
"6	c #7B7D83",
"7	c #787A80",
"8	c #68696F",
"9	c #5F6066",
"0	c #ABADB8",
"a	c #606167",
"b	c #ACAEB9",
"c	c #76787F",
"d	c #707278",
"e	c #7D7F85",
"f	c #9698A1",
"g	c #9699A2",
"h	c #8A8C94",
"i	c #73757C",
"j	c #8E9199",
"k	c #A8ABB5",
"l	c #75777D",
"m	c #595B61",
"n	c #858790",
"o	c #696B71",
"p	c #484A50",
"q	c #868991",
"r	c #ACAFB9",
"s	c #696B72",
"t	c #4B4D53",
"u	c #6E7078",
"v	c #868890",
"w	c #4D4F55",
"x	c #4C4E54",
"y	c #4A4C52",
"z	c #4B4D52",
"A	c #4E5056",
"B	c #5C5E64",
"C	c #CDD0DE",
"D	c #7B7C83",
"E	c #9FA2AC",
"F	c #9598A1",
"G	c #BDC0CB",
"H	c #A7AAB4",
"I	c #B4B6C2",
"                                 ",
"               .                 ",
"              +@+                ",
"             +#$#+               ",
"            .%&*&%.              ",
"           .=#-*-#=.             ",
"           ;#-***-#;             ",
"          >%&*****&%>            ",
"          ,'-*****-',            ",
"         >%&*-----*&%>           ",
"         ,'-&#%@%#&-',           ",
"        .%$)@!~{~!@)$%.          ",
"       ]^#/@.(___(.@/#^]         ",
"        %/#!(_____(!#/%          ",
"       ,'/@~_______~@/',         ",
"      .:/#!(_______(!#/:.        ",
"       <$@~_________~@$<         ",
"      ,#[!(_________(![#,        ",
"     .:}@~_||_____||_~@}:.       ",
"      %1!(2332|_|2332(!1%        ",
"     ;456789982|289987654;       ",
"    .04!(39aa93|39aa93(!40.      ",
"     @5~|39aa93|39aa93|~5@       ",
"    ;4b{_289982|289982_{b4;      ",
"   .04!(_|2337({]cd32|_(!40.     ",
"   .50~____||efbbg(|____~05.     ",
"   .5b{______h5[[5h_____{b5.     ",
"   .5b{____|ij@kk@ji|___{b5.     ",
"   .5b{____lmn@%%@nml___{b5.     ",
"   .5b{___|opqr@@rqpo|__{b5.     ",
"   .5b{___|stuqvvquts|__{b5.     ",
"   .5b{___|swxyzzyxws|__{b5.     ",
"   .5b{___|swAAAAAAws|__{b5.     ",
"   .5b{___|swAAAAAAws|__{b5.     ",
"   .5b{___|swAAAAAAws|__{b5.     ",
"   .5b{___|swAAAAAAws|__{b5.     ",
"   .5b{___|oxAAAAAAxo|__{b5.     ",
"   .5b{____lBxwwwwxBl___{b5.     ",
"   .5b{____|lossssol|___{b5.     ",
"   .5b{______||||||_____{b5.     ",
"   .5b{_________________{b5.     ",
"   .5b]({{{{{{(_({{{{{{(]b5.     ",
"   .5b6f5@@@@5f{f5@@@@5f6b5.     ",
"   .5b.5C----C5.5C----C5.b5.     ",
"   .5b.@-****-@.@-****-@.b5.     ",
"   .5b.@-****-@.@-****-@.b5.     ",
"   .5b.@-****-@.@-****-@.b5.     ",
"   .5b.5C----C5.5C----C5.b5.     ",
"   .5b6f5@@@@5f{f5@@@@5f6b5.     ",
"   .5b]{......{_{......{]b5.     ",
"   .5b6f5@@@@5f{f5@@@@5f6b5.     ",
"   .5b.5C----C5.5C----C5.b5.     ",
"   .5b.@-****-@.@-****-@.b5.     ",
"   .5b.@-****-@.@-****-@.b5.     ",
"   .5b.@-****-@.@-****-@.b5.     ",
"   .5b.5C----C5.5C----C5.b5.     ",
"   .5b6f5@@@@5f{f5@@@@5f6b5.     ",
"   .55~]D6666D](]D6666D]~55.     ",
"   .04E!FFFFFFFFFFFFFFF!E40.     ",
"    ;[G%@@@@@@@@@@@@@@@%G[;      ",
"     @[HkkkkkkkkkkkkkkkH[@       ",
"    ]^I)))))))))))))))))I^]      ",
"     .:$---------------$:.       ",
"      +#&-------------&#+        ",
"       +:%%%%%%%%%%%%%:+         ",
"        ...............          ",
"                                 "};
