/* XPM */
static char * ship4h_xpm[] = {
"135 33 8 1",
" 	c None",
".	c #A9ACB6",
"+	c #4E5056",
"@	c #7E8087",
"#	c #606167",
"$	c #CBCEDB",
"%	c #D33D22",
"&	c #7F8188",
"                                                                                                                                       ",
"                               .............................................................................                           ",
"                  +++++..........................................................................................@@@@@@@               ",
"               ++++.......@@@@@#...@@@@@@@@@#######@@@@$$$@@@@@@@@@@@@@@@@@@@@@@@@@@@@@@@@@@@@@@@@@@@@@@@$$$@@@@........@@@            ",
"            ++++..........@@@@#...@@@@@@@@@@@#####@@@@$$$$$@@@@@@@@@@@@@@@@@@@@@@$$$@@@@@@@@@@@@@@@@@@@@$$$$$@@@@@@@@@@....@@@@@@##    ",
"          +++.........@@@@@@@#...@@@@@@$$$$$$#####@@@@@$$$######@@@@@@@@@@@@@@@@$$$$$@@@@@@@@@@@@@@@@@@@@$$$@@@@@@@@@@@@@@........+    ",
"         ++........@@@@@@@@@#...@@@@@@$$$$$$$$####@@@@@@@###$$$#@@@@@@@@@@@@@@@@@$$$@@@@@@@@@@@@@@@@@@@@@@@@@@@@@@@@@@@@@@@@@@@@@.++   ",
"        ++......@@@@@@@@@@@@#..@@@@@@$$$$$$$$$$###@@@@@@@#$$$$$##@@@@@@@@@@@@@@@@.$.................................@@@@@@@@@@@@@.#+   ",
"       ++.....@@@@@@@@@@@@@#...@@@@@@$$$$..$$$$###@@@@@@@#$$$$$$###########@@@@@.....................................@@@@@@@@@@@@.#++  ",
"      ++.....@@@@@@@@@@@@@#...@@@@@@$$$$....$$$###@@@@@@@#$$$$$$@@@@@@@@@@##@@@.....$$$......$$$......$$$......$$$....@@@@@@@@@@@.#++  ",
"     ++.....@@@@@@@@@@@@@@#..@@@@@@@$$$......$$###%%%%%%%%%$$$$$@@@@@@@@@@##@@@....$$$$$....$$$$$....$$$$$....$$$$$...@@@@@@@@@@###++  ",
"    ++.....@@@@@@@@@@@@@@#...@@@@@@@$$$......$$###%%%%%%%%%$$$$$@@@@$$$$$$###@@...$$$$$$$..$$$$$$$..$$$$$$$..$$$$$$$..##@@@@@@@@###++  ",
"   ++.....@@@@@@@@@@@@@@#...@@@@@@@@@$$$....$$$###%%%%%%%%%$$$$+++@$$$$$$$###@@...$$$$$$$..$$$$$$$..$$$$$$$..$$$$$$$..##@@@@@@@@###++  ",
"  ++.....@@@@@@@@@@@@@@#...@##@@@@@@@$$$$..$$$$###@@@@@@@@@$$$$+++@$$$$$$$###@@....$$$$$....$$$$$....$$$$$....$$$$$..@##@@@@@@@@###++  ",
"  ++....@@@@@@$@@@@@@@@#..@@$##@@@@@@@$$$$$$$$$###@@@@@@@@@@$$$+++@@@@@@@@###@@.....$$$......$$$......$$$......$$$...@##@$$$@@@@###++  ",
" +++...@@@@@@$$$@@@@@@#..@@$$$#@@@@@@@$$$$$$$$$#############$$$$$$@@@@@@#####@@......................................@##$$$$$@@@###++  ",
" +++.......@$$$$$@@@@@#..@@$$$#@@@@@@@$$$$$$$$$#############$$$$$$@@@@@@#####@@......................................@##$$$$$@@@###++  ",
" +++...@@@@@@$$$@@@@@@#..@@$$$#@@@@@@@$$$$$$$$$#############$$$$$$@@@@@@#####@@......................................@##$$$$$@@@###++  ",
"  ++....@@@@@@$@@@@@@@@#..@@$##@@@@@@@$$$$$$$$$###@@@@@@@@@@$$$+++@@@@@@@@###@@.....$$$......$$$......$$$......$$$...@##&$$$@@@@###++  ",
"  ++.....@@@@@@@@@@@@@@#...@##@@@@@@@$$$$..$$$$###@@@@@@@@@$$$$+++@$$$$$$$###@@....$$$$$....$$$$$....$$$$$....$$$$$..@##@@@@@@@@###++  ",
"   ++.....@@@@@@@@@@@@@@#...@@@@@@@@@$$$....$$$###%%%%%%%%%$$$$+++@$$$$$$$###@@...$$$$$$$..$$$$$$$..$$$$$$$..$$$$$$$..##@@@@@@@@###++  ",
"    ++.....@@@@@@@@@@@@@@#...@@@@@@@$$$......$$###%%%%%%%%%$$$$$@@@@$$$$$$###@@...$$$$$$$..$$$$$$$..$$$$$$$..$$$$$$$..##@@@@@@@@###++  ",
"     ++.....@@@@@@@@@@@@@@#..@@@@@@@$$$......$$###%%%%%%%%%$$$$$@@@@@@@@@@##@@@....$$$$$....$$$$$....$$$$$....$$$$$...@@@@@@@@@@###++  ",
"      ++.....@@@@@@@@@@@@@#...@@@@@@$$$$....$$$###@@@@@@@#$$$$$$@@@@@@@@@@##@@@.....$$$......$$$......$$$......$$$....@@@@@@@@@@@.#++  ",
"       ++.....@@@@@@@@@@@@@#...@@@@@@$$$$..$$$$###@@@@@@@#$$$$$$###########@@@@@.....................................@@@@@@@@@@@@.#++  ",
"        ++......@@@@@@@@@@@@#..@@@@@@$$$$$$$$$$###@@@@@@@#$$$$$$#@@@@@@@@@@@@@@@@.$.................................@@@@@@@@@@@@@.#+   ",
"         ++........@@@@@@@@@#...@@@@@@$$$$$$$$####@@@@@@@###$$$##@@@@@@@@@@@@@@@@$$$@@@@@@@@@@@@@@@@@@@@@@@@@@@@@@@@@@@@@@@@@@@@@.++   ",
"          +++.........@@@@@@@#...@@@@@@$$$$$$#####@@@@@$$$######@@@@@@@@@@@@@@@@$$$$$@@@@@@@@@@@@@@@@@@@@$$$@@@@@@@@@@@@@@........+    ",
"            ++++..........@@@@#...@@@@@@@@@@@#####@@@@$$$$$@@@@@@@@@@@@@@@@@@@@@@$$$@@@@@@@@@@@@@@@@@@@@$$$$$@@@@@@@@@@....@@@@@@##    ",
"               ++++.......@@@@@#...@@@@@@@@@#######@@@@$$$@@@@@@@@@@@@@@@@@@@@@@@@@@@@@@@@@@@@@@@@@@@@@@@$$$@@@@........@@@@           ",
"                  +++++..........................................................................................@@@@@@@               ",
"                               .............................................................................                           ",
"                                                                                                                                       "};
