/* XPM */
static char * ship3v_xpm[] = {
"33 101 101 2",
"  	c None",
". 	c #7E8087",
"+ 	c #7C7E85",
"@ 	c #7D7F86",
"# 	c #84868D",
"$ 	c #67686E",
"% 	c #63646A",
"& 	c #7B7D84",
"* 	c #7C7D85",
"= 	c #C0C3CF",
"- 	c #606167",
"; 	c #7A7C83",
"> 	c #72737A",
", 	c #C0C2CF",
"' 	c #CACDDA",
") 	c #64656C",
"! 	c #65666C",
"~ 	c #6F7077",
"{ 	c #C5C8D4",
"] 	c #CBCEDB",
"^ 	c #C6C8D5",
"/ 	c #84868E",
"( 	c #6E7077",
"_ 	c #C6C9D6",
": 	c #878991",
"< 	c #65676D",
"[ 	c #717279",
"} 	c #606268",
"| 	c #808289",
"1 	c #888A92",
"2 	c #C4C7D3",
"3 	c #C8CBD8",
"4 	c #8A8C94",
"5 	c #82848C",
"6 	c #82848B",
"7 	c #A3A6B0",
"8 	c #A6A9B3",
"9 	c #ACAFB9",
"0 	c #A9ACB6",
"a 	c #7C7E84",
"b 	c #616268",
"c 	c #6D6F75",
"d 	c #6D6F76",
"e 	c #64656B",
"f 	c #66676D",
"g 	c #85878F",
"h 	c #BEC1CD",
"i 	c #C1C3D0",
"j 	c #85878E",
"k 	c #9B9DA7",
"l 	c #707178",
"m 	c #73757C",
"n 	c #C6C9D5",
"o 	c #898B93",
"p 	c #A4A6B0",
"q 	c #8B8D95",
"r 	c #BFC2CE",
"s 	c #C1C4D0",
"t 	c #868890",
"u 	c #83858D",
"v 	c #7F8188",
"w 	c #8D9098",
"x 	c #AEB1BC",
"y 	c #A5A8B2",
"z 	c #A4A7B1",
"A 	c #BDC0CC",
"B 	c #74757C",
"C 	c #696A70",
"D 	c #787981",
"E 	c #83858C",
"F 	c #A6A9B2",
"G 	c #86888F",
"H 	c #85888F",
"I 	c #8D8F97",
"J 	c #C2C5D1",
"K 	c #8D8F98",
"L 	c #A1A3AD",
"M 	c #8E9099",
"N 	c #6B6C73",
"O 	c #6B6D73",
"P 	c #A0A3AC",
"Q 	c #A5A7B1",
"R 	c #868990",
"S 	c #90929B",
"T 	c #686970",
"U 	c #6F7178",
"V 	c #A2A5AE",
"W 	c #A4A7B0",
"X 	c #63656B",
"Y 	c #7D7E84",
"Z 	c #877C82",
"` 	c #887C82",
" .	c #716267",
"..	c #C7493B",
"+.	c #CE4634",
"@.	c #705F63",
"#.	c #CC412D",
"$.	c #D33D22",
"%.	c #6F5F64",
"&.	c #C64435",
"*.	c #616167",
"                                                                  ",
"                              . . .                               ",
"                          . + + + + + .                           ",
"                      . @ # $ % % % $ # @ .                       ",
"                    . & * =   - - -   = * & .                     ",
"                  . ; > , '   ) % )   ' , > ; .                   ",
"                . ; ! ~ { ] ^ / + / ^ ] { ~ ! ; .                 ",
"              . ; ! - ( { ] _ : . : _ ] { ( - ! ; .               ",
"            . ; ! - - ( { ] _ : . : _ ] { ( - - ! ; .             ",
"            + < - - - ( { ] _ : . : _ ] { ( - - - < +             ",
"          . ; % - - - ( { ] _ : . : _ ] { ( - - - % ; .           ",
"          + < - - - - ( { ] _ : . : _ ] { ( - - - - < +           ",
"        . ; % - - % % [ { ] _ : . : _ ] { [ % % - - % ; .         ",
"        + < } % < ; | 1 2 3 2 4 5 4 2 3 2 1 | ; < % } < +         ",
"      . ; % % ; + 6 7 8 9 9 9 8 8 8 9 9 9 8 7 6 + ; % % ; .       ",
"      + < - % + . 5 8 0 0 0 0 0 0 0 0 0 0 0 8 5 . + % - < +       ",
"      a % - % + . 5 8 0 0 0 0 0 0 0 0 0 0 0 8 5 . + % - % a       ",
"      a % - % + . 5 8 0 0 0 0 0 0 0 0 0 0 0 8 5 . + % - % a       ",
"      + % - % ; + 6 7 8 9 9 9 8 8 8 9 9 9 8 7 6 + ; % - % +       ",
"    . + % - - % < ; | 4 2 3 2 4 5 4 2 3 2 4 | ; < % - - % ; .     ",
"    .   - b c ( d e f g _ ] _ : . : _ ] _ g f e d ( c b - < +     ",
"    + % - c h i h c % j _ ] _ : . : _ ] _ j % c h i h c - % a     ",
"    a % - ( i k i ( % j _ ] _ : . : _ ] _ j % ( i k i ( - % a     ",
"    a % - c h i h c % j _ ] _ : . : _ ] _ j % c h i h c - % a     ",
"    a % - e l [ l e % j _ ] _ : . : _ ] _ j % e l [ l e - % a     ",
"    a % e 5 j j j 5 $ j _ ] _ : . : _ ] _ j $ 5 j j j 5 e % a     ",
"    a % d = _ _ _ = l j _ ] _ : . : _ ] _ j l = _ _ _ = d % a     ",
"    a % ( { ] ] ] { [ j _ ] _ : . : _ ] _ j [ { ] ] ] { ( % a     ",
"    a % ( { ] ] ] { m 1 2 3 2 4 5 4 2 3 2 1 m { ] ] ] { ( % a     ",
"    a % ( { ] ] ] n o p 9 9 9 8 8 8 9 9 9 p o n ] ] ] { ( % a     ",
"    a % ( { ] ] ] _ q 8 0 9 9 9 9 9 9 9 0 8 q _ ] ] ] { ( % a     ",
"    a % c r n _ _ s 4 8 9 _ 3 3 3 3 3 _ 9 8 4 s _ _ n r c % a     ",
"    a % b l g : : t u 8 9 3 ] ] ] ] ] 3 9 8 u t : : g l b % a     ",
"    a % - % + . . v o 8 9 _ 3 3 3 3 3 _ 9 8 o v . . + % - % a     ",
"    a % - % + v t w r 9 0 9 9 9 9 9 9 9 0 9 r w t v + % - % a     ",
"    a % - % + t s _ 3 x y z z z z z z z y x 3 _ s t + % - % a     ",
"    a % - % + : _ ] ' A B C C C C C C C B A ' ] _ : + % - % a     ",
"    a % - % + t s _ i D b - - - - - - - b D i _ s t + % - % a     ",
"    a % - % + v t : / e - - % % % % % - - e / : t v + % - % a     ",
"    a % - % + . . . + f % < ; + + + ; < % f + . . . + % - % a     ",
"    a % - % + . . . . + + + . . . . . + + + . . . . + % - % a     ",
"    a % - % + . . 6 5 5 5 5 5 5 5 5 5 5 5 5 5 6 . . + % - % a     ",
"    a % - % + . 6 7 8 8 8 8 8 8 8 8 8 8 8 8 8 7 6 . + % - % a     ",
"    a % - % + . 5 8 0 9 9 9 9 9 9 9 9 9 9 9 0 8 5 . + % - % a     ",
"    a % - % + . 5 8 9 _ 3 3 3 3 3 3 3 3 3 _ 9 8 5 . + % - % a     ",
"    a % - % + . 5 8 9 3 ] ] ] ] ] ] ] ] ] 3 9 8 5 . + % - % a     ",
"    a % - % + . 5 8 9 _ 3 3 3 3 3 3 3 3 3 _ 9 8 5 . + % - % a     ",
"    a % - % + . 5 8 0 9 9 9 9 9 9 9 9 9 9 9 0 8 5 . + % - % a     ",
"    a % - % + . 6 7 8 8 0 0 8 8 8 8 8 0 0 8 8 7 6 . + % - % a     ",
"    a % - % + . . 6 5 E   8 t 5 5 5 t 8   E 5 6 . . + % - % a     ",
"    a % - % + . . . . 6 F 8 5 . . . 5 8 F 6 . . . . + % - % a     ",
"    a % - % + . . . . G 8 8 5 . . . 5 8 8 G . . . . + % - % a     ",
"    a % - % + . . . H 7 8 7 6 . . . 6 7 8 7 H . . . + % - % a     ",
"    a % - % + . . 6 7 8 t 6 . . . . . 6 t 8 7 6 . . + % - % a     ",
"    a % - % + . . 5 8 8 5 . . . . . . . 5 8 8 5 . . + % - % a     ",
"    a % - % + . . 5 8 8 5 . . . . . . . 5 8 8 5 . . + % - % a     ",
"    a % - % + 6 5 t 8 8 5 v t : : : t v 5 8 8 t 5 6 + % - % a     ",
"    a % - b   F 8 8 8 7 E I J _ _ _ J I E 7 8 8 8 F   b - % a     ",
"    a % b ~ z 8 8 7 G E K J ' _ _ _ ' J K E G 7 8 8 z ~ b % a     ",
"    a e ~ L 7 G 5 6 . t J ] _ M : M _ ] J t . 6 5 G 7 L ~ e a     ",
"    a N L 8 G . . . . : _ ] _ : . : _ ] _ : . . . . G 8 L N a     ",
"    a O z 8 5 . . . . : _ ] _ : . : _ ] _ : . . . . 5 8 z O a     ",
"    a O z 8 5 . . . . t J ] _ M : M _ ] J t . . . . 5 8 z O a     ",
"    a O z 8 t 5 5 5 5 E K J ' _ _ _ ' J K E 5 5 5 5 t 8 L N a     ",
"    a N P Q 8 8 8 8 8 7 R S J _ _ _ J S R 7 8 8 8 8 8 L ~ e a     ",
"    a e T U V 8 8 8 8 8 8 W 4 : : : 4 W 8 8 8 8 8 8 V ~ b % a     ",
"    a % - X | 5 5 5 5 t 8 8 5 . . . 5 8 8 t 5 5 5 5 | X - % a     ",
"    a % - % + . . . . 5 8 8 5 . . . 5 8 8 5 . . . . + % - % a     ",
"    a % - % + . . . . 5 8 8 5 . . . 5 8 8 5 . . . . + % - % a     ",
"    a % - % + . . . . 5 8 8 5 . . . 5 8 8 5 . . . . + % - % a     ",
"    a % - % + . . . . 5 8 8 5 . . . 5 8 8 5 . . . . + % - % a     ",
"    a % - % + . . . . 5 8 8 5 . . . 5 8 8 5 . . . . + % - % a     ",
"    a % - % + . . . . 6 7 7 6 . . . 6 7 7 6 . . . . + % - % a     ",
"    a % - % + . . . . . 6 6 . . . . . 6 6 . . . . . + % - % a     ",
"    a % - % + v t : : : : : t v . v t : : : : : t v + % - % a     ",
"    a % - % + t s _ _ _ _ _ s t . t s _ _ _ _ _ s t + % - % a     ",
"    a % - % + : _ ] ] ] ] ] _ : . : _ ] ] ] ] ] _ : + % - % a     ",
"    a % - % + : _ ] ] ] ] ] _ : . : _ ] ] ] ] ] _ : + % - % a     ",
"    a % - % + : _ ] ] ] ] ] _ : . : _ ] ] ] ] ] _ : + % - % a     ",
"    a % - % + : _ ] ] ] ] ] _ : . : _ ] ] ] ] ] _ : + % - % a     ",
"    a % - % + : _ ] ] ] ] ] _ : . : _ ] ] ] ] ] _ : + % - % a     ",
"    a % - % + : _ ] ] ] ] ] _ : . : _ ] ] ] ] ] _ : + % - % a     ",
"    a % - % + t s _ _ _ _ _ s t . t s _ _ _ _ _ s t + % - % a     ",
"    a % - % ; v t : : : : : t v . v t : : : : : t v + % - % a     ",
"    + < - - < + . . . . . . . . . . . . . . . . . . ; % - < +     ",
"    . ; % - % ; + Y Z ` Z Y Y Z ` Z Y Y Z ` Z Y + ; ! - % ; .     ",
"      + % - - % %  ...+... . ...+... . ...+... .% % - - % +       ",
"      a % - - - - @.#.$.#.@.@.#.$.#.@.@.#.$.#.@.- - - - % a       ",
"      a % - - - - @.#.$.#.@.@.#.$.#.@.@.#.$.#.@.- - - - % a       ",
"      a % - - - - @.#.$.#.@.@.#.$.#.@.@.#.$.#.@.- - - - % a       ",
"      + < - - - - @.#.$.#.@.@.#.$.#.@.@.#.$.#.@.- - - - < +       ",
"      . ; % - - - @.#.$.#.@.@.#.$.#.@.@.#.$.#.@.- - - % ; .       ",
"        + % - - - @.#.$.#.@.@.#.$.#.@.@.#.$.#.@.- - - % +         ",
"        + < - - - @.#.$.#.@.@.#.$.#.@.@.#.$.#.@.- - - < +         ",
"        . ; ! - - @.#.$.#.@.@.#.$.#.@.@.#.$.#.@.- - ! ; .         ",
"          . ; % - %.&.#.&.%.%.&.#.&.%.%.&.#.&.%.- % ; .           ",
"          . + < - *.%.@.%.*.*.%.@.%.*.*.%.@.%.*.- < + .           ",
"            . ; < % % % % % % % % % % % % % % % < ; .             ",
"              . + + + + + + + + + + + + + + + + + .               ",
"                  . . . . . . . . . . . . . . .                   ",
"                                                                  "};
