/* XPM */
static char * bomb_xpm[] = {
"15 18 6 1",
" 	c None",
".	c #ED4C29",
"+	c #EDA229",
"@	c #EDE629",
"#	c #000000",
"$	c #565656",
"  .            ",
" .+.           ",
".+@##          ",
" .+. ##        ",
"  .    #       ",
"       #       ",
"      ###      ",
"      ###      ",
"    #######    ",
"   ###$#####   ",
"  ###$#######  ",
"  ##$########  ",
"  #$$$#######  ",
"  ###$#######  ",
"  ###########  ",
"  ###########  ",
"   #########   ",
"    #######    "};
