/* XPM */
static char * bomb_xpm[] = {
"19 25 6 1",
" 	c None",
".	c #EDAA29",
"+	c #ED4C29",
"@	c #141414",
"#	c #464646",
"$	c #C0C0C0",
"  .   .            ",
"   .+.             ",
"  @+++             ",
" @ .+.             ",
"@ .   .            ",
"@                  ",
"@   @              ",
" @ @#@  @@@@       ",
"  @###@@####@@     ",
" @@@##########@@   ",
"  @@####$$$#####@  ",
"   @#######$$###@  ",
"  @@#############@ ",
"  @@#############@ ",
" @@###############@",
" @@###############@",
" @@@##############@",
" @@@##############@",
"  @@#############@ ",
"  @@@############@ ",
"   @@@##########@  ",
"   @@@@@@######@@  ",
"    @@@@@@@@@@@@   ",
"      @@@@@@@@     ",
"        @@@@       "};
