/* XPM */
static char * menu_shipL_xpm[] = {
"80 40 10 1",
" 	c None",
".	c #C7C3C3",
"+	c #081F23",
"@	c #C88E3B",
"#	c #EDE1E1",
"$	c #358FA2",
"%	c #2B7180",
"&	c #0F0C0C",
"*	c #D24747",
"=	c #C32525",
"                                                                                ",
"                                                        .                       ",
"                                              ..       ..                       ",
"                                          .....   . ....                        ",
"                                         .      ... .   .                       ",
"                                          ....  . ......                        ",
"                                        . .     . .                             ",
"                                        .       .    ...                        ",
"                                       ++++++ ++++++                            ",
"                                       ++++++ ++++++                            ",
"                                        @@@@   @@@@                             ",
"                                        @@@@   @@@@                             ",
"                                        @@@@   @@@@                             ",
"                                        @@@@   @@@@                             ",
"                                        @@@@   @@@@                             ",
"                                 ##########################                     ",
"                                ############################                    ",
"                               ##############################                   ",
"                              ################################                  ",
"                             #########$%%####$%%####$%%#######                  ",
"                             #########$%%%###$%%%###$%%%######                  ",
"                            ##########$%%%###$%%%###$%%%########                ",
"          &&&&&&&&&&&&&&&&&&&&&&######$$$%###$$$%###$$$%########                ",
"          &&&&&&&&&&&&&&&&&&&&&&&###########################&&&&&&&&&           ",
"          &&&&&&&&&&&&&&&&&&&&&&&&##########################&&&&&&&&&           ",
"           &&&&&&&&&&*###*&&&&&&&&&########################&&&&&&&&&&           ",
"            &&&&&&&&**&&&**&&&&&&&&&#####################&&&&&&&&&&&            ",
"            &&&&&&&&#&&&&&#&&&&&&&&&&###################&&&&&&&&&&&             ",
"              &&&&&&#&&&&&#&&&&&&&&&&&################&&&&&&&&&&&&&             ",
"              &&&&&&**&&&**&&&&&&&&&&&&&&&&&&&&&&&&&&&&&&&&&&&&&&&              ",
"               &&&&&&*###*&&&&&&&&&&&&&&&&&&&&&&&&&&&&&&&&&&&&&&&&              ",
"                &&&&&&&&&&&&&&&&&&&&&&&&&&&&&&&&&&&&&&&&&&&&&&&&&               ",
"                 &&&&&&&&&&&&&&&&&&&&&&&&&&&&&&&&&&&&&&&&&&&&&&&&               ",
"                 &&&&&&&&&&&&&&&&&&&&&&&&&&&&&&&&&&&&&&&&&&&&&&&                ",
"                 &&&&&&&&&&&&&&&&&&&&&&&&&&&&&&&&&&&&&&&&&&&&&&                 ",
"                  &&&&&&&&&&&&&&&&&&&&&&&&&&&&&&&&&&&&&&&&&&&&&                 ",
"                  ============================================                  ",
"                  ============================================                  ",
"                  ============================================                  ",
"                   ==========================================                   "};
