/* XPM */
static char * moon_xpm[] = {
"100 100 19 1",
" 	c None",
".	c #CECECE",
"+	c #C9C9C9",
"@	c #C8C8C8",
"#	c #DCDCDC",
"$	c #DFDFDF",
"%	c #E7E7E7",
"&	c #DEDEDE",
"*	c #CBCBCB",
"=	c #C5C5C5",
"-	c #C6C6C6",
";	c #CDCDCD",
">	c #E5E5E5",
",	c #DDDDDD",
"'	c #DBDBDB",
")	c #E4E4E4",
"!	c #C0C0C0",
"~	c #C1C1C1",
"{	c #C4C4C4",
"                                                                                                    ",
"                                                                                                    ",
"                                                                                                    ",
"                                                                                                    ",
"                                                                                                    ",
"                                                                                                    ",
"                                                                                                    ",
"                                     .++@++.####$$$$$%%%%%                                          ",
"                                   .+@@@@+#&&&&&&&&&&&&$$$$$$                                       ",
"                                 .++@@@@###&&&&&&&&&&&&&&&$$$$$                                     ",
"                              ..++@@@@#####&&&&&&&&&&&&&&&&$$$$%%                                   ",
"                             ++@@@@@@####$$&&$&&&&&&&&&&&$&&$$$***%                                 ",
"                            +@@@@@@@###$$$&&&&&&&&&&&&&&&$$$$%*****@@                               ",
"                          ++@@@@@@###$$&&&&&&&&&&&&&&&&&&$$$$%*****=@@=                             ",
"                        @++@@@@@##$$$&&&&&&&&&&&&&&&&&&&&&$$$****@@@@@@@                            ",
"                       ++@@@@@###$$&&&&&&&&&&#--==&&&&&&&&$$$****@@@@@@+.                           ",
"                     @++@@@@###$$$&&&&&&&&&&#=@@==..&&&&&&&$$****@@@@@++++.                         ",
"                    ++@@@@@##$$$$&&&&&&&&&#@@@@;;..@+&&&&&&&$#***@@@@@+@@@..                        ",
"                   ++@@@@###$$$$&&&&&&&&&@@@@@@@@@@@@@&&&&&&&#***@@@@@;@@@@+.                       ",
"                 +@@@@@@###$$$$$&&&&&&&&@@@@@=+@@@@@@@#&&&&&&&***@@@@=+@@@@@..                      ",
"                 @@@@@+##&$$$$$$&&&&&&#@@@@@=.@@@@@@@@@#&&&&&&**@@@@@;@@@@@@@.                      ",
"                +@@@@@#$$&$$$$$&&&&&&&#@@@@@;+@@@@@@@@@@&&&&&&**@@@@@;@@@@@@@@.                     ",
"               +@@@@@*$$&&$$&&$&&&&&&##@@@@@+@@@@@@@@@@@&&&&&&***@@@@;@@@@@@@@@.                    ",
"              +@@@@@$$$&&$$$&&$&&&&&&##@@@@@+@@@@@@@@@@@&&&&&&***@@@@;+@@@@@@@@@+                   ",
"             +@@@@@#$$$&&&&&&&&&&&&&&##@@@@=+@@@@@@@@@@@@&&&&&***@@@@=+@@@@@@@@@@.                  ",
"            .+@@@@>$$$&$&&&&&&&&&&&&&##@@@@=+@@@@@@@@@@@@&&&&&$**@@@@@+@@@@@@@@@@.                  ",
"            +@@@@*$$$$&$&&&&&&&&&&&&&&#@@@@=+@@@@@@@@@@@#&&&&&$%*@@@@@@+@@@@@@@@@@.                 ",
"           .+@@@*$$$$$&&&&&&&&&&&&&&&&&@@@@=+@@@@@@@@@@@#&&&&&$$*@@@@@=.@@@@@@@@@@.                 ",
"           +@@@@*$$$$&&&&&&&&&&&&&&&&&&#@@@@.@@@@@@@@@@@,&&&&&$$**@@@@==.@@@@@@@@@..                ",
"          .+@@@+*$$$&&&&&&&&&&&&&&&&&&&##@@@@.@@@@@@@@@#,&&&&&$$$**@@@@=..@@@@@@@@@..               ",
"          .@@@@*#$$$&&&&$&&&&&&&&&&&&&&&##@@@@..@@@@@@#,&&&&&&$$$%*@@@@@=..@@@@@@@@@.               ",
"         .@@@@+*$$$&&&&&&&&&&&&&&&&&&&&&###@@@==.@@@@#,&&&&&&$$$$$%@@@@@@=..@@@@@@@@+               ",
"         .@@@@+*$$$&&&&&&&&&&&&&&&&&&&&&&##@@@@@=+++@,,&&&&&&$&$$$$%@@@@@@=.@@@@@@@@+               ",
"         .@@@@+*$$$&&&&&&&&&&&&&&&&&&&&&&&&##@@@@@@@#&&&&&&&&$$$$$$$@@@@@@@@.+@@@@@@@+              ",
"         +@@@+*$$$$&&&$$&&&&$&&&&&&&&&&&&&&&#######,&&&&&&&&&$$$$$$$$@@@@@@@@.++@@@@@+@             ",
"        .@@@@+*$$$&$$$$$&$&&&&&&&&&&&&&&&&&&&####&&&&&&&&&&&$$$$$$$$$$%**@@@@@@@.+@@@@+             ",
"        .@@@@+$$$$&$$$$&&$&&&&&&&&&&&&&&&&&&&&&&&&&&&&&&&&&$$$$$%%$$$$$%%*@@@@@@=...@@@.            ",
"        +@@@++$$$$$$$$%$$$$&&&&&&&&&&&&&&&&&&&&&&&&&&&&&&&&$%$$$%%$&&&&&&$#@@@@@@==....;            ",
"       .@@@@+#$$$$%$$$%$$$$&&&&&&$$$&&&&&&&&&&&&&&&&&&&&&&&%%&&&&&$&&&&&&&&##*@@=@===@@*            ",
"       .@@@@*$$$$%%$$%$$$$$&&&&&&&&$$$$&&&&&&&&&&&&&&$&&&&$%$&&&&&$$&&&&&&&&&***@@*****%            ",
"       .@@@+#$$$%%%$$%$$$$$&&&&&&&&$$$$$&&&&&&&&&&&&&&&&$$$$&&&&&&$$$$$&&&&&&&$%%%%%%%%%            ",
"       .@@@+#$$$%%%$$%$$$$$$&&&&&&&$$$$$$&&&&&$&&&&&&&&&&&$$&&&&&$$$%$&&&&&&&&&$$%%%%%%%%           ",
"      .+@@@*#$$$%%%$$%$$$$$$$&&&&&&&$$$$$&&&&&&&&&&&&&&&&&&$&&&&&%%%$$$$&&&&&&&&&$$$$%%%%           ",
"      .@@@@*#$$%%%%$%$$$$$$$$&&&&&&&$$$$$$$&&&&&&&&&&&&&&&&&&&&&$%$$$$$$$$$$$&&&&&$$$$%%%           ",
"      .@@@@*$$$%%%%%$$%$$$$$$&&$$&&&&$$$&&&&&&&&&&&&&&&&&&&&&&&&$%$$$##')%%%%$$&&&&$$$$%%           ",
"      .@@@@*$$$%%%%%%%%$$$$$$&&&&&&&&$&&&&&&&$&&&&&&&&&&&&&&&&&$$$$$''!!==)%%%$$$$$$$$$%%           ",
"      .@@@@*$$$%%%%%%%%$$$$$$%$$$$&&&&$&&&&&&&&&&&&&&&&&&&&&&&&$&$$''!!=~==@*%%$$$$&$$$%%           ",
"      .@@@@*$$$%%%%%%%%$$$$$$%$$$$&&&&&&&&&&$$&$$&&&&&&&&&&&&&$$&$''!!!!!!+++@%%$$$$$$$$            ",
"      .@@@+*$$$%%%%%%%%$%$$$$%$&&$$&&&&&&&&&&$&$&&&&&&&&&&&&&&$$&$#!!!!!!+@@@.%%%$$$$$$$            ",
"      .@@@+*$$$%%%%%%%$$%$%$%%&&&$$&&$$&&&&&&$&&&&&&&&&&&&&&&$$$&$#{!!!=.+@@@.%%%$$$$$$$            ",
"      .+@@+*#$$$%%%%%%$$%$%$%%&&&$$%$$$&&&&&&&&&&&&&&&&&&&&&&$$$&$${!!!=.@@@@+%%%$$$%$$$            ",
"       +@@+*#$$$%%%%%%$$%$%$%%&&&%%%%$$&&&&&&&&&&&&&&&&&&&&&$$$$&&${~!!=;@@@@.%%$$$$$$$$            ",
"       +@@@@#$$$$%%%%%$$%$$%%$&&&%%%%$&&&&&&&&&$$$&&&&&&&&&&$$$$&&&{~!!==+@@+.%$$$$$$$$$            ",
"       +@@@+*$$$$%%%%%$$%$$%%$&&&%%%%%&&&&&&&&&&%$&&&&$&&&&&$$$$&&&$!~!==@++.$$$$$$$&$$$            ",
"       .@@@+*%$$$$%%%%$$$&&$$$&&$$%%%%$&&&&&&&&&&&&&&&&&&&&$$&&$&&&&{{!~===%$$$$$$$$&$$$            ",
"       .@@@@*%$$$$%%%%&&$&&$$$&&&$%%%$$&&&&&&&&&&&&&&&&&&&&$&&&$&&&&${{{!{%$$$$$$$$$$$$$            ",
"        +@@@*%%$$$$%%$&&$&$$$$$&&&$%%$&&&&&&$&&&&&&&&&&&&&&&&&&$&&&&$$$$$$$$$$$$$$$&$$$%            ",
"        +@@@**%$$$$%%$&&&&%%$$$&&&&&%&&&&&&&$$&&&&&&&&&&&&&&&&&&&&&&&&&&&&&&&&&&&&&$$$$%            ",
"        .@@@**%%$$$$$$&&$$%$$$$&&&&&&&&&&&&$$$$&&&&&&&&$&&&&&&&&&&&&&&&&&&&&&&&&&&$$$$$             ",
"        .@@@@*%%$$$$$$$&$%%$$$$%$&&&&&&&&&&$$$$&&&&&&&&$$&&&&$&&&&&&&&&&&&&&&&&$$$$$$$%             ",
"        .+@@@*%%%$$$$$$&$$$$$$%%%%&&&&&&&&&%%%$$$$&&&&$$$$$$$$%%$$&&&&&&&&&&$$$$$$$$$$%             ",
"         .@@@@*%%$$$$$$$$$$$$$%%%%%&&&&&&&$$%%$$$$&&&$$$$$$$$$$$$$$&&&&&&&&&$$$$$$%$$$              ",
"         .+@@@*%%$$$%$$$$$$$$%%%%%$$$&&&$$$$$%$$$$$$%%%%$$$$$$$$$$$$$$&&&&&&&&&&&&&$$$              ",
"          +@@@**%$$$$%$$$$$%%%%%%%$$$$&$&$$$$$$$$$$%%%%%%%%%$$$$$$$$$&&&&&&&&&&&&&&$$$              ",
"          .+@@@**$$$$%%%%%%%%%%%%%$$$$$$$$$$$$&$$$%%%%%%%%%%%$$$$$$$&&&&&&&&&&&&&&&$$%              ",
"           +@@@@*%$$$$%%%%%%%%%%%%$$$%$$$$$$$$$$$%%%%%%%%%%%%$$$$$$&&&&&&&&&&&&&$$$$$               ",
"           .+@@@*%$$$$$%%%%%%%%%%%$$$%$$$$$$$$$$$$$$%%%%%%%%%$$$$$&&&&&&&&&,,...&$$#                ",
"            +@@@@%%$$$$%%%%%%%%%%%$$$%%$$$%$$$$$$$&&&&&$$%%%%$$$$$&&&&&&&&&@@@@++%%*                ",
"             +@@@*%$$$$$%%%%%%%%%%$$$$$$$$%$$$$$$&&&&&&&&&$$%$$$$$&&&&&&,@@@@@@@@+@@                ",
"             +@@@@%%$$$$$%%%%%%%%%$$$$$$$$%$$$$&$$&&&&&&&&&&$$$$$&&&&&#.@@@@@@@@@@+                 ",
"             .@@@@@%%$$$$%%%%%%%%%%$$$$$$%%%$$&&$$&&&&&&&&&&&$$$#&&&&#.@@@@@@@@@++                  ",
"              .@@@+%%$$$$$%%%%%%%%%%%%%%%%%%%$&&&&&&&&&&&&&&&$$$#&&&&;+@@@@@@@@@+                   ",
"               .@@@+%%$$$$$%%%%%%%%%%%%%%%%%%$&&&&&&&===&&&&&$$$&&&&&+@@@@@@@@@+                    ",
"               .+@@@+%%$$$$$$%%%%%%%%%%%%%%%%$&&&&&&=====&&&&$$$&&&&=+@@@@@@@@+.                    ",
"                .@@@@.>%$$$$$%%%%%%%%%%%%%%%%$$&&&&======&&&&$$$&&&&=@@@@@@@@@.                     ",
"                 +@@@@+%%$$$$$$%%%%%%%%%%%%%%$$$$%%)=====&&&&$$$&&&&@@@@@@@@@..                     ",
"                  ++@@@+%%$$$$$$%%%%%%%%%%%%%$$$$%%%====#&&&&$$$&&&&@+@@@@@@@.                      ",
"                   ++@@@+%%$$$$$$%%%%%%%%%%%%$$$$%$&&&&&&&&&&$$$&&&&@+.@@@@@+                       ",
"                    @+@@@+*%%$$$$$%%%%%%%%%%%$$$$$$&&&&&&&&&&$$&&&&&@@.+@@@+.                       ",
"                     ++@@++*%%$$$$$$%%%%%%%%%%$$$$$&&&&&&&&&$$$&&&&&@@@@@+..                        ",
"                       +@@++@%%$$$$$$$%%%%%%%%$$$$$&&&&&&&&&$$$&&&&&#@@@=..                         ",
"                        +@@++@*%$$$$$$$$$%%%%%$$$%%$&&&$&&&&&&&&&&&&&#@@.                           ",
"                         .+@@+@*%$$$$$$$$$$%%%$$$$$$$$$$&&&&&&&&&&&&##@.                            ",
"                           ++@++**%$$$$$$$$$$%$$$$$$$$$$&&&&&&&&&&&&&#                              ",
"                            ++@+++@*%%$$$$$$$$$&&$$$&$$$$$$&&&&&&&&&&&                              ",
"                             +++@+++@***%$$$$$$$$$$$$$$$$$$$$$$$%%%%                                ",
"                               @+@@++@****%$$$$$$$$$$$$$$$$$$$%%%%                                  ",
"                                 ++++++@**%%%%%$$$$$$$$%%%%%%%%                                     ",
"                                     .++++>%%%%%%%%%%%%%%%%                                         ",
"                                         ...                                                        ",
"                                                                                                    ",
"                                                                                                    ",
"                                                                                                    ",
"                                                                                                    ",
"                                                                                                    ",
"                                                                                                    ",
"                                                                                                    ",
"                                                                                                    ",
"                                                                                                    ",
"                                                                                                    "};
