/* XPM */
static char * player1s_xpm[] = {
"50 10 2 1",
" 	c None",
".	c #f09b13",
" ..... .     ..... .   . ..... .....       .      ",
" .   . .     .   . .   . .     .   .      ..      ",
" .   . .     .   . .   . .     .   .     ...      ",
" .   . .     .   . .   . .     .   .       .      ",
" ..... .     ..... ..... ...   .....       .      ",
" .     .     .   .   .   .     ...         .      ",
" .     .     .   .   .   .     .  .        .      ",
" .     .     .   .   .   .     .  ..       .      ",
" .     .     .   .   .   .     .   .       .      ",
" .     ..... .   .   .   ..... .   .     .....    "};
