/* XPM */
static char * player2s_xpm[] = {
"50 10 2 1",
" 	c None",
".	c #f09b13",
" ..... .     ..... .   . ..... .....     .....    ",
" .   . .     .   . .   . .     .   .         .    ",
" .   . .     .   . .   . .     .   .         .    ",
" .   . .     .   . .   . .     .   .         .    ",
" ..... .     ..... ..... ...   .....     .....    ",
" .     .     .   .   .   .     ...       .        ",
" .     .     .   .   .   .     .  .      .        ",
" .     .     .   .   .   .     .  ..     .        ",
" .     .     .   .   .   .     .   .     .        ",
" .     ..... .   .   .   ..... .   .     .....    "};
