/* XPM */
static char * press_enter_xpm[] = {
"300 50 2 1",
" 	c None",
".	c #246b7d",
"                                                                                                                                                                                                                                                                                                            ",
"                                                                                                                                                                                                                                                                                                            ",
"                                                                                                                                                                                                                                                                                                            ",
"                                                                                                                                                                                                                                                                                                            ",
"                                                                                                                                                                                                                                                                                                            ",
"                                                                                                                                                                                                                                                                                                            ",
"                                                                                                                                                                                                                                                                                                            ",
"                                                                                                                                                                                                                                                                                                            ",
"                                                                                                                                                                                                                                                                                                            ",
"                           ...........          ..........             ..............                                                                            ..............                .....                                                      ..........                                        ",
"                           .............       .............           ..............         ............            .......                                 .................                .....             .......               .........        .............                                       ",
"                           ..............      ..............          ..............        .............          .........                               ...................     .....      .....     ..................     ................       ...............                                      ",
"                          ................     ................        ..............       ..............          .........                               ...................     ......     .....     ..................     ................       ...............                                      ",
"                          ................     ................        ..............       ..............         ..........                               ...................     .......    .....     ..................     ................       ...............                                      ",
"                          ......  ........     ..... ..........        .....                ..............         ..........                               .........               ........   ......    ..................    .................       .......  ......                                      ",
"                          ......   ........    .....    .......        .....                ......                 .......                                  .....                   .........  ......    ..................    ............            ......   ......                                      ",
"                          ......     ......    .....     ......        .....                ......                 ......                                   .....                   .........  ......            .....         .......                 ......    .....                                      ",
"                          .....      ......    .....     ......       ......                .....                  ......                                   .....                   .......... ......            .....         ......                  .....    ......                                      ",
"                          .....      ......    .....     ......       ......                .....                  ......                                   .....                   .......... ......            .....         ......                  .....   .......                                      ",
"                          .....       .....    .....    .......       ......                ......                 ........                                 .....                   ........... ......           .....         .....    .....          .....  ........                                      ",
"                          .....       .....    .....  .........       ......                ........               ..........                              ................         ........... ......           .....         ..............          ..... .........                                      ",
"                          .....      ......    ...............        .....  ......         ...............        ..............                          ................        ...................           .....         ..............          ...............                                      ",
"                          .....     .......    ...............        .............         ................        ...............                        ................        ...................           .....         ..............          ..............                                       ",
"                          .....   .........    ...............        .............          ................        ...............                       ................        ...................           .....         ..............          .............                                        ",
"                          .................    .............          .............           ................        ...............                      ................        ...... ............           .....         .............           ............                                         ",
"                          .................     .............         .............             ...............         .............                      .....                   ......  ...........           .....         ......                  .............                                        ",
"                          ...............       ...............       ............                    .........             .........                      .....                   .....   ............          .....         ......                  ..............                                       ",
"                          ..............        ...............       ......                            .......               .......                      .....                   .....    ...........          .....         ......                  ...............                                      ",
"                          ............          ..... ..........      .....                              ......                ......                      .....                   .....     ..........          .....         ......                  ..... .........                                      ",
"                          .....                 .....  ..........     .....                              ......                ......                      .....                   .....     ..........          .....          .....                  .....   ........                                     ",
"                          .....                 .....    ........     ......                             ......               .......                      ......                  .....      .........          .....          ......       ......    .....    .......                                     ",
"                          .....                 .....     .......     ......                            .......              ........                      ......                  .....       ........          .....          ......     ........    .....    ........                                    ",
"                          .....                 .....      .......    ......                           ........           ...........                      ..................      .....       ........          .....          ...................    .....     .......                                    ",
"                          .....                 .....      .......    ......               ....................     ................                       ..................      .....        .......          .....          ...................    .....      ......                                    ",
"                          .....                 .....       ......    ......               ...................      ................                       ..................      .....        .......          .....          ...................    .....      ......                                    ",
"                          .....                 .....       ......     ................    ...................      ...............                         .................      .....         ......          .....           .................     .....      ......                                    ",
"                          .....                 .....       ......     ................    ..................       ..............                          .................      .....         ......          .....           ...............       .....       .....                                    ",
"                          .....                 .....        .....     ................    ................         ..........                                                     .....                         .....                                 .....       .....                                    ",
"                          .....                 .....        .....     ................                                                                                                                                                                .....                                                ",
"                          .....                 .....                  ................                                                                                                                                                                .....                                                ",
"                          .....                 .....                                                                                                                                                                                                                                                       ",
"                          .....                                                                                                                                                                                                                                                                             ",
"                                                                                                                                                                                                                                                                                                            ",
"                                                                                                                                                                                                                                                                                                            ",
"                                                                                                                                                                                                                                                                                                            ",
"                                                                                                                                                                                                                                                                                                            ",
"                                                                                                                                                                                                                                                                                                            ",
"                                                                                                                                                                                                                                                                                                            ",
"                                                                                                                                                                                                                                                                                                            ",
"                                                                                                                                                                                                                                                                                                            "};
