/* XPM */
static char * ship1h_xpm[] = {
"67 33 6 1",
" 	c None",
".	c #7E8087",
"+	c #CBCEDB",
"@	c #A9ACB6",
"#	c #606167",
"$	c #4E5056",
"                                                                   ",
"                                                                   ",
"                                                                   ",
"                                                                   ",
"                       ....................................        ",
"                    ...++++++++++++++++++++++++++++++++++++...     ",
"                 ...++++..................................+++..    ",
"              ...++++.....................................@@@++.   ",
"           ...+++++.......................++++++..++++++..@@@+++.  ",
"          ..+++++.........................++++++..++++++..@@@+++.  ",
"        ..+++++.....###...................++++++..++++++..@@@+++.  ",
"      ..+++++......#####....$$$$$$$$$.....++++++..++++++..@@@+++.  ",
"    ..+++++........#####...$$$$$$$$$$$....++++++..++++++..@@@+++.  ",
"   ..++++++........#####..@@@@$$$$$$$$....++++++..++++++..@@@+++.  ",
"  .+++++++..........###..+@@@@$$$$$$$$....++++++..++++++..@@@+++.  ",
" .++++++++...............+@@@@$$$$$$$$....................@@@+++.  ",
" .++++++++...............+@@@@$$$$$$$$....................@@@+++.  ",
"  .+++++++..........###...@@@@$$$$$$$$....++++++..++++++..@@@+++.  ",
"   ..++++++........#####...$$$$$$$$$$$....++++++..++++++..@@@+++.  ",
"    ..+++++........#####....$$$$$$$$$.....++++++..++++++..@@@+++.  ",
"      ..+++++......#####..................++++++..++++++..@@@+++.  ",
"        ..+++++.....###...................++++++..++++++..@@@+++.  ",
"          ..+++++.........................++++++..++++++..@@@+++.  ",
"           ...+++++.......................++++++..++++++..@@@+++.  ",
"              ...++++.....................................@@@++.   ",
"                 ...++++..................................+++..    ",
"                    ...++++++++++++++++++++++++++++++++++++...     ",
"                       ....................................        ",
"                                                                   ",
"                                                                   ",
"                                                                   ",
"                                                                   ",
"                                                                   "};
