/* XPM */
static char * ship3h_xpm[] = {
"101 33 6 1",
" 	c None",
".	c #7E8087",
"+	c #606167",
"@	c #A9ACB6",
"#	c #CBCEDB",
"$	c #D33D22",
"                                                                                                     ",
"                                                                                                     ",
"                   ...................................................................               ",
"              ......+++++++++++++++++++++++++++++++++++++++++++++++++++++++++++++++++.......         ",
"            ...+++++++++++++++++++++++++++++++++++++++++++++@@@@+++++++++++++++++++++++++++....      ",
"          ...++++++++++++.######+++++++++++++++++++++++++++@@@@@@+++++++++++++++++++++++++++++...    ",
"        ...++++++++++###+.######......................... @@....@@...................++++++++++...   ",
"       ..+++++.....++#.#+.######.........................@@.....@@....................+++++++++++..  ",
"      ..++++++.....++###+.######...###...................@@.....@@.........########...++++++++++++.  ",
"     ..++++++.......+++++.######...###....@@@@@@@........@@.....@@.........########...++++++++++++.. ",
"    ..+++++++.@@@@@.+++++++++.....####....@@@@@@@....@@@@@......@@.........########...$$$$$$$$$$++.. ",
"   ..++++++++.@@@@@..........@@@@@@@#+++..@@###@@...@@@@@@......@@.........########...$$$$$$$$$$++.. ",
"   .+#########@@@@@##########@@@@@@@++++..@@###@@ @@@......####..@@@@@@@@..########...$$$$$$$$$$++.. ",
"  ..##########@@@@@##########@@###@@++++..@@###@@@@@@.....######.@@@@@@@@..########...++++++++++++.. ",
"  .+  ########@@@@@##########@@###@@+++...@@###@@........########..........########...++++++++++++.. ",
" ..+++........@@@@@..........@@###@@+++...@@###@@........##....##.....................$$$$$$$$$$++.. ",
" ..+++........@@@@@..........@@###@@+++...@@###@@........##....##.....................$$$$$$$$$$++.. ",
" ..+++........@@@@@..........@@###@@+++...@@###@@........##....##.....................$$$$$$$$$$++.. ",
"  .+  ########@@@@@##########@@###@@+++...@@###@@........########..........########...++++++++++++.. ",
"  ..##########@@@@@##########@@###@@++++..@@###@@@@@@.....######.@@@@@@@@..########...++++++++++++.. ",
"   .+#########@@@@@##########@@@@@@@++++..@@###@@ @@@......####..@@@@@@@@..########...$$$$$$$$$$++.. ",
"   ..++++++++.@@@@@..........@@@@@@@#+++..@@###@@...@@@@@@......@@.........########...$$$$$$$$$$++.. ",
"    ..+++++++.@@@@@.+++++++++.....####....@@@@@@@....@@@@@......@@.........########...$$$$$$$$$$++.. ",
"     ..++++++.......+++++.######...###....@@@@@@@........@@.....@@.........########...++++++++++++.. ",
"      ..++++++.....++###+.######...###...................@@.....@@.........########...++++++++++++.  ",
"       ..+++++.....++#.#+.######.........................@@.....@@....................+++++++++++..  ",
"        ...++++++++++###+.######......................... @@....@@..................+++++++++++...   ",
"          ...++++++++++++.######+++++++++++++++++++++++++++@@@@@@+++++++++++++++++++++++++++++...    ",
"            ...+++++++++++++++++++++++++++++++++++++++++++++@@@@@++++++++++++++++++++++++++....      ",
"              ...... ++++++++++++++++++++++++++++++++++++++++++++++++++++++++++++++++.......         ",
"                   ...................................................................               ",
"                                                                                                     ",
"                                                                                                     "};
