/* XPM */
static char * ship4v_xpm[] = {
"33 135 152 2",
"  	c None",
". 	c #4E5056",
"+ 	c #4F5157",
"@ 	c #595B62",
"# 	c #5A5C63",
"$ 	c #62656B",
"% 	c #9FA2AC",
"& 	c #A4A7B0",
"* 	c #A0A3AC",
"= 	c #A9ACB6",
"- 	c #A6A9B3",
"; 	c #A8ABB5",
"> 	c #A4A6B0",
", 	c #898C94",
"' 	c #A3A6B0",
") 	c #85888F",
"! 	c #83858C",
"~ 	c #A3A6AF",
"{ 	c #7E8087",
"] 	c #82848C",
"^ 	c #82848B",
"/ 	c #7F8188",
"( 	c #898B93",
"_ 	c #63656C",
": 	c #A4A7B1",
"< 	c #8D8F97",
"[ 	c #BDC0CC",
"} 	c #C2C5D1",
"| 	c #CACDDA",
"1 	c #5B5D64",
"2 	c #86888F",
"3 	c #85878F",
"4 	c #CBCEDB",
"5 	c #7C7E85",
"6 	c #65676E",
"7 	c #7B7C83",
"8 	c #6D6E75",
"9 	c #6B6D73",
"0 	c #7B7D84",
"a 	c #72737A",
"b 	c #A1A3AD",
"c 	c #73757B",
"d 	c #A5A7B1",
"e 	c #A1A4AD",
"f 	c #868890",
"g 	c #878991",
"h 	c #A6A9B2",
"i 	c #A5A8B1",
"j 	c #84878E",
"k 	c #C6C9D6",
"l 	c #84868D",
"m 	c #71737A",
"n 	c #BBBECA",
"o 	c #67686E",
"p 	c #787981",
"q 	c #BFC2CF",
"r 	c #C5C8D4",
"s 	c #A6A8B2",
"t 	c #7A7C83",
"u 	c #707178",
"v 	c #717279",
"w 	c #A5A8B2",
"x 	c #787A81",
"y 	c #8D9098",
"z 	c #C9CCD8",
"A 	c #C7CAD6",
"B 	c #AFB2BC",
"C 	c #AFB1BC",
"D 	c #81838A",
"E 	c #878990",
"F 	c #6D6F75",
"G 	c #C1C3D0",
"H 	c #696A71",
"I 	c #64656B",
"J 	c #C0C3CF",
"K 	c #696A70",
"L 	c #606167",
"M 	c #616268",
"N 	c #6E7077",
"O 	c #63646A",
"P 	c #64646A",
"Q 	c #6F5F64",
"R 	c #705F63",
"S 	c #857A80",
"T 	c #C7483B",
"U 	c #CC412D",
"V 	c #887C82",
"W 	c #CE4634",
"X 	c #D33D22",
"Y 	c #83858D",
"Z 	c #90939B",
"` 	c #ACAFB9",
" .	c #C4C7D4",
"..	c #C8CBD8",
"+.	c #C6C9D5",
"@.	c #867A80",
"#.	c #CE4534",
"$.	c #C0C2CF",
"%.	c #7D6F75",
"&.	c #CD4331",
"*.	c #BCBFCB",
"=.	c #BFC2CE",
"-.	c #C6C1CD",
";.	c #D16762",
">.	c #D2574D",
",.	c #CD5C55",
"'.	c #8E858C",
").	c #7D7F86",
"!.	c #65666D",
"~.	c #797A82",
"{.	c #C5C8D5",
"].	c #CBCDDA",
"^.	c #CCC7D4",
"/.	c #CCC7D3",
"(.	c #CBC7D3",
"_.	c #C2C4D1",
":.	c #8C8E96",
"<.	c #6E7078",
"[.	c #61636A",
"}.	c #6F7179",
"|.	c #55575D",
"1.	c #66686E",
"2.	c #66676D",
"3.	c #585A60",
"4.	c #53555B",
"5.	c #64666D",
"6.	c #7E8188",
"7.	c #C1C4D0",
"8.	c #84868E",
"9.	c #6D6F76",
"0.	c #65676D",
"a.	c #8D8F98",
"b.	c #8A8C94",
"c.	c #8B8D95",
"d.	c #AEB1BC",
"e.	c #AAADB7",
"f.	c #868990",
"g.	c #A2A5AE",
"h.	c #80828A",
"i.	c #6B6C73",
"j.	c #686970",
"k.	c #63656B",
"l.	c #808289",
"m.	c #A1A4AE",
"n.	c #9DA0A9",
"o.	c #68696F",
"p.	c #5C5E64",
"q.	c #67696F",
"r.	c #67686F",
"s.	c #5F6167",
"t.	c #5F6066",
"u.	c #505258",
"                                                                  ",
"                              . . .                               ",
"                          . . . . . . .                           ",
"                        + @ # # # # # @ +                         ",
"                      + $ % & & & & & % $ +                       ",
"                    + $ * = = = = = = = * $ +                     ",
"                  + $ * = = = - ; - = = = * $ +                   ",
"                + $ * = = = > , ' , > = = = * $ +                 ",
"              + $ * = = = > ) ! ~ ! ) > = = = * $ +               ",
"            + $ * = = = > ) { ] ~ ] { ) > = = = * $ +             ",
"          + $ * = = = > ) { { ^ * ^ { { ) > = = = * $ +           ",
"          # % = = = > ) { { { / ( / { { { ) > = = = % #           ",
"        + _ : = = > ) { { { / < [ < / { { { ) > = = : _ +         ",
"        # % = = > ) { { { / < } | } < / { { { ) > = = % #         ",
"        1 & = - 2 { { { { 3 [ | 4 | [ 3 { { { { 2 - = & 1         ",
"      + _ : = ' ^ { { { { / < } | } < / { { { { ^ ' = : _ +       ",
"      # % = - 2 { { { { { { / < [ < / { { { { { { 2 - = % #       ",
"      1 & = - ] { { { { { { { / 3 / { { { { { { { ] - = & 1       ",
"    + _ : = ' ^ { { { { { { { { { { { { { { { { { ^ ' = : _ +     ",
"    # % = - 2 { { { { { { { { { { { { { { { { { { { 2 - = % #     ",
"    1 & = - ] { { { { { { { { { { { { { { { { { { { ] - = & 1     ",
"    1 & = ' ^ { { { { { { { { 5 5 5 { { { { { { { { ^ ' = & 1     ",
"    6 : - 2 { { { { { { { 5 7 8 9 8 7 5 { { { { { { { 2 - : 6     ",
"    : = - ] { { { { { { 0 8 a b : b a 8 0 { { { { { { ] - = :     ",
"    = = - ] { { { { { 0 c b d - - - d b c 0 { { { { { ] - = =     ",
"    = - ' ^ { { { 5 7 c e ; > 2 ] 2 > ; e c 7 5 { { { ^ ' - =     ",
"    - f ^ { { { 0 8 a e ; > f f g f f > ; e a 8 0 { { { ^ f -     ",
"    h ] { { 5 7 c b i ; ' j < } k } < j ' ; i b c 7 5 { { ] h     ",
"    h ] { 0 8 a e ; - ' l m n | 4 | n m l ' - ; e a 8 0 { ] h     ",
"    h ] 0 c b i ; > 2 ^ 5 o p q r q p o 5 ^ 2 > ; i b c 0 ] h     ",
"    s / c e ; - ' ) { { { t o u v u o t { { { ) ' - ; e c / s     ",
"  = w x e ; > 2 ^ { { { { { 5 5 5 5 5 { { { { { ^ 2 > ; e x w =   ",
"  = = w ; > ) { { { { { { { { { { { { { { { { { { { ) > ; w = =   ",
"  = = = > ) { { { { { { { { { { { { { { { { { { { { { ) > = = =   ",
"  = = > ) { { { { { { { { { { { { { { { { { { { { { { { ) > = =   ",
"  = - 2 { { { { / f g f / { { { { { { { / f g f / { { { { 2 - =   ",
"  = - ] { { / f y } k } y f / { { { / f y } k } y f / { { ] - =   ",
"  = - ] { / < } k 4 4 4 k } y g g g y } k 4 4 4 k } < / { ] - =   ",
"  = - ] / < } 4 4 4 z z 4 4 k k k k k 4 4 z z 4 4 4 } < / ] - =   ",
"  = - ] f } 4 4 4 A B B A 4 4 4 4 4 4 4 A B B A 4 4 4 } f ] - =   ",
"  = - ] g k 4 4 A C = = C A 4 4 4 4 4 A C = = C A 4 4 k g ] - =   ",
"  = - ] g k 4 z B = = = = B z 4 4 4 z B = = = = B z 4 k g ] - =   ",
"  = - ] g k 4 z B = = = = B z 4 4 4 z B = = = = B z 4 k g ] - =   ",
"  = - D E k 4 4 A C = = C A 4 4 4 4 4 A C = = C A 4 4 k E D - =   ",
"  = d F ] G | 4 4 A B B A 4 4 4 4 4 4 4 A B B A 4 4 | G ] F d =   ",
"  = : H I p J | 4 4 z z 4 4 4 4 4 4 4 4 4 z z 4 4 | J p I H : =   ",
"  = : K L M p q r r r r r r r r r r r r r r r r r q p M L K : =   ",
"  = : K L L M F N N N N N N N N N N N N N N N N N F M L L K : =   ",
"  = : K L L L L L L L L L L L L L L L L L L L L L L L L L K : =   ",
"  = : H O O O O O P Q R Q P O L L L O P Q R Q P O O O O O H : =   ",
"  = d F t 5 5 5 5 S T U T S t O L O t S T U T S 5 5 5 5 t F d =   ",
"  = - D { { { { { V W X W V 5 O L O 5 V W X W V { { { { { D - =   ",
"  = - ] { { { { { V W X W V 5 O L O 5 V W X W V { { { { { ] - =   ",
"  = - Y 3 / { { { V W X W V 5 O L O 5 V W X W V { { { / 3 Y - =   ",
"  = - Z [ < / { { V W X W V 5 O L O 5 V W X W V { { / < [ Z - =   ",
"  = `  .| } f { { V W X W V 5 O L O 5 V W X W V { { f } |  .` =   ",
"  = ` ..4 +.3 5 5 @.#.X W V 5 O L O 5 V W X #.@.5 5 3 +.4 ..` =   ",
"  = `  .| $.v u v %.&.X W V 5 O L O 5 V W X &.%.v u v $.|  .` =   ",
"  = - Z *.p N =.r -.;.>.,.'.).O L O ).'.,.>.;.-.r =.N p *.Z - =   ",
"  = - Y Y !.~.{.4 ].^./.(._.:.v N v :._.(./.^.].4 {.~.!.Y Y - =   ",
"  = - ] 5 u q | 4 4 4 4 4 4 k r r r k 4 4 4 4 4 4 | q u 5 ] - =   ",
"  = - ] 5 v r 4 4 4 4 4 4 4 4 4 4 4 4 4 4 4 4 4 4 4 r v 5 ] - =   ",
"  = - ] 5 u q | 4 4 4 | r  .r | 4 | r  .r | 4 4 | {.=.u 5 ] - =   ",
"  = - ] 5 o p q r +.k J <.[.}.r 4 r }.[.<.J k +.$.~.u o 5 ] - =   ",
"  = - ] { t o u v 3 g Y |.. [. .4  .[.. |.Y g 3 u 1.t 5 { ] - =   ",
"  = - ] { { 5 t 2.5 { 0 3.4.5.J k J 5.4.3.0 { 5 2.t { { { ] - =   ",
"  = - ] { { { 5 2.5 { 6.Y Y ).f g f ).Y Y 6.{ 5 2.5 { { { ] - =   ",
"  = - ] { { { 5 2.5 / < } 7.f { { { f 7.} < / 5 2.5 { { { ] - =   ",
"  = - ] { { { 5 2.5 f } 4 k g { { { g k 4 } f 5 2.5 { { { ] - =   ",
"  = - ] { { { 5 2.5 g k 4 k g { { { g k 4 k g 5 2.5 { { { ] - =   ",
"  = - ] { { { 5 2.5 g k 4 k g { { { g k 4 k g 5 2.5 { { { ] - =   ",
"  = - ] { { { 5 2.5 g k 4 k E 5 5 5 E k 4 k g 5 2.5 { { { ] - =   ",
"  = - ] { { { 5 2.5 g k 4 k 3 2.O 2.3 k 4 k g 5 2.5 { { { ] - =   ",
"  = - ] { { { 5 2.t 8.J r J ] O L O ] J r J 8.t 2.5 { { { ] - =   ",
"  = - ] { { { 5 2.O I 9.N 9.I L L L I 9.N 9.I O 2.5 { { { ] - =   ",
"  = - ] { { { { t 0.O L L L L L L L L L L L O 0.t { { { { ] - =   ",
"  = - ] { { { { { 5 t 0.O O O O O O O O O 0.t 5 { { { { { ] - =   ",
"  = - ] { { { { { { { 5 5 5 5 5 5 5 5 5 5 5 { { { { { { { ] - =   ",
"  = - ] { { { { { ^ ] ] ] ] ] ] ] ] ] ] ] ] ] ^ { { { { { ] - =   ",
"  = - ] / 3 / { ) ' - - - - - - - - - - - - - ' ) { / 3 / ] - =   ",
"  = - Y < [ a.f > = = = = = = = = = = = = = = = > f a.[ < Y - =   ",
"  = - b.} |  .` = = = ` ` = = = = = = = ` ` = = = `  .| } b.- =   ",
"  = - c.k 4 4  .` = C k k C = = = = = C k k C = `  .4 4 k c.- =   ",
"  = - b.} |  .d.e.C A 4 4 A C = = = C A 4 4 A C e.d. .| } b.- =   ",
"  = - Y < [ Z - ` k 4 4 4 4 k ` = ` k 4 4 4 4 k ` - Z [ < Y - =   ",
"  = - ] / 3 Y - ` ..4 4 4 4 ..` = ` ..4 4 4 4 ..` - Y 3 / ] - =   ",
"  = - ] { { ] - ` k 4 4 4 4 k ` = ` k 4 4 4 4 k ` - ] { { ] - =   ",
"  = - ] { { ] - = C A 4 4 A C = = = C A 4 4 A C = - ] { { ] - =   ",
"  = - ] { { ] - = = C k k C = = = = = C k k C = = - ] { { ] - =   ",
"  = - ] { { ] - = = = ` ` = = = = = = = ` ` = = = - ] { { ] - =   ",
"  = - ] { { ] - = = = ` ` = = = = = = = ` ` = = = - ] { { ] - =   ",
"  = - ] { { ] - = = C k k C = = = = = C k k C = = - ] { { ] - =   ",
"  = - ] { { ] - = C A 4 4 A C = = = C A 4 4 A C = - ] { { ] - =   ",
"  = - ] { { ] - ` k 4 4 4 4 k ` = ` k 4 4 4 4 k ` - ] { { ] - =   ",
"  = - ] { { ] - ` ..4 4 4 4 ..` = ` ..4 4 4 4 ..` - ] { { ] - =   ",
"  = - ] { { ] - ` k 4 4 4 4 k ` = ` k 4 4 4 4 k ` - ] { { ] - =   ",
"  = - ] { { ] - = C A 4 4 A C = = = C A 4 4 A C = - ] { { ] - =   ",
"  = - ] { { ] - = = C k k C = = = = = C k k C = = - ] { { ] - =   ",
"  = - ] { { ] - = = = ` ` = = = = = = = ` ` = = = - ] { { ] - =   ",
"  = - ] { { ] - = = = ` ` = = = = = = = ` ` = = = - ] { { ] - =   ",
"  = - ] { { ] - = = C k k C = = = = = C k k C = = - ] { { ] - =   ",
"  = - ] { { ] - = C A 4 4 A C = = = C A 4 4 A C = - ] { { ] - =   ",
"  = - ] { { ] - ` k 4 4 4 4 k ` = ` k 4 4 4 4 k ` - ] { { ] - =   ",
"  = - Y 3 / ] - ` ..4 4 4 4 ..` = ` ..4 4 4 4 ..` - ] / 3 Y - =   ",
"  = - Z [ < Y - ` k 4 4 4 4 k ` = ` k 4 4 4 4 k ` - Y < [ Z - =   ",
"  = `  .| } b.- = C A 4 4 A C = = = C A 4 4 A C = - b.} |  .` =   ",
"  = ` ..4 k c.- = = C k k C = = = = = C k k C = = - c.k 4 ..` =   ",
"  = `  .| } b.- = = = ` ` = = = = = = = ` ` = = = - b.} |  .` =   ",
"    - Z [ < Y - = = = ` ` = = = = = = = ` ` = = = - Y < [ Z -     ",
"    h Y 3 / ] - = = C k k C = = = = = C k k C = = - ] / 3 Y h     ",
"    h ] { { ] - = C A 4 4 A C = = = C A 4 4 A C = - ] { { ] h     ",
"    - 2 { { ] - ` k 4 4 4 4 k ` = ` k 4 4 4 4 k ` - ] { { 2 -     ",
"    - ' ^ { ] - ` ..4 4 4 4 ..` = ` ..4 4 4 4 ..` - ] { ^ ' -     ",
"    f.' ] { ] - ` k 4 4 4 4 k ` = ` k 4 4 4 4 k ` - ] { ] ' f.    ",
"    ! ~ ] { ] - = C A 4 4 A C = = = C A 4 4 A C = - ] { ] ~ !     ",
"    ! ~ ] { ^ ' = = C k k C = = = = = C k k C = = ' ^ { ] ~ !     ",
"    ! ~ ] { { ) > = = ` ` - - - - - - - ` ` = = > ) { { ] ~ !     ",
"    ! ~ ] { { { ) ' - d g.l h.h.h.h.h.l g.d - ' ) { { { ] ~ !     ",
"    ! ' 2 { { { { ^ h.i.j.k.O O O O O k.j.i.h.^ { { { { 2 ' !     ",
"    ! ' ' ^ { { { { 5 2.O O I 9.N 9.I O O 2.5 { { { { ^ ' ' !     ",
"      f.' ] { { { { { 5 5 ).< 7.r G c.).5 5 { { { { { ] ' f.      ",
"      ! ' 2 { { { { { { { f } 4 4 4 } f { { { { { { { 2 ' !       ",
"      ] ' ' ^ { { { { { { g k 4 4 4 k g { { { { { { ^ ' ' !       ",
"      { f ' ] { { { { { { f } 4 4 4 } f { { { { { { ] ' f.        ",
"        ! ~ ] { { { { { { / < } k } < / { { { { { { ] ~ !         ",
"        ! ~ ] { { { { { { { / f g f / { { { { { { { ] ~ !         ",
"        ! ~ ] { { { { { { { { { { { { { { { { { { { ] ~ !         ",
"        ! ~ ] { { { 5 5 5 5 5 5 5 5 5 5 5 5 5 { { { ] ~ !         ",
"        D ~ f ] ] l.2.O O O O O O O O O O O 2.l.] ] f ~ D         ",
"        i.% e m.m.n.o.L L L L L L L L L L L o.n.m.m.e % i.        ",
"        L p.p.1.q.r.s.t.t.t.t.t.t.t.t.t.t.t.s.r.q.1.p.p.L         ",
"            . u.u.u.u.u.u.u.u.u.u.u.u.u.u.u.u.u.u.u..             ",
"                . . . . . . . . . . . . . . . . .                 ",
"                                                                  ",
"                                                                  "};
