/* XPM */
static char * ship1_xpm[] = {
"33 33 8 1",
" 	c None",
".	c #7E8087",
"+	c #A9ACB6",
"@	c #4E5056",
"#	c #606167",
"$	c #CBCEDB",
"%	c #FFFFFF",
"&	c #D33D22",
"       ...................       ",
"     .......................     ",
"   ....+++++++++++++++++++....   ",
"   ...+++++++++++++++++++++...   ",
"  ...+++++++++++++++++++++++...  ",
"  ..+++++@@@@@@@@@@@@@@@+++++..  ",
" ..+++++@###############@+++++.. ",
" ..++++@#################@++++.. ",
" ..+++@###################@+++.. ",
" ..+++@########@@@########@+++.. ",
" ..+++@.######@@@@@######.@+++.. ",
" ..+++@..###############..@+++.. ",
" ..+++@...#############...@+++.. ",
" ..+++@.....#########.....@+++.. ",
" ..+++@...................@+++.. ",
" ..+++@...................@+++.. ",
" ..+++@...................@+++.. ",
" ..+++@....$$$$$.$$$$$....@+++.. ",
" ..+++@....$$$$$.$$$$$....@+++.. ",
" ..+++@....$$$$$.$$$$$....@+++.. ",
" ..+++@....$$$$$.$$$$$....@+++.. ",
" ..+++@....+$$$+.+$$$+....@+++.. ",
" ..+++@....+++++.+++++....@+++.. ",
" ..+++@...................@+++.. ",
" ..+++@...................@+++.. ",
" ..++++@.......%&&.......@++++.. ",
" ..+++++@.....&%&&&.....@+++++.. ",
"  ..+++++@@@@&&%@%%%@@@@+++++..  ",
"  ...++++++++&&+++&&++++++++...  ",
"   ...+++++++%%%+%&&+++++++...   ",
"   ....+++++++&&&%&+++++++....   ",
"     ..........&&%..........     ",
"       ...................       "};
