/* XPM */
static char * star_xpm[] = {
"100 100 30 1",
" 	c None",
".	c #FFC850",
"+	c #FFCB53",
"@	c #FFC951",
"#	c #FFD059",
"$	c #FFD860",
"%	c #FFD25A",
"&	c #FFDA62",
"*	c #FFDC64",
"=	c #FFCA52",
"-	c #FFD35C",
";	c #FFDB63",
">	c #FFD45C",
",	c #FFCC55",
"'	c #FFDA63",
")	c #FFC952",
"!	c #FFD65E",
"~	c #FFD15A",
"{	c #FFCD55",
"]	c #FFC851",
"^	c #FFCB54",
"/	c #FFD962",
"(	c #FFCC54",
"_	c #FFD961",
":	c #FFD760",
"<	c #FFCF57",
"[	c #FFD65F",
"}	c #FFCA53",
"|	c #FFCE56",
"1	c #FFD55E",
"                                                                                                    ",
"                                                                                                    ",
"                                                                                                    ",
"                                                                                                    ",
"                                                                                                    ",
"                                                                                                    ",
"                                                                                                    ",
"                                                                                                    ",
"                                                                                                    ",
"                                                                                                    ",
"                                                                                                    ",
"                                                                                                    ",
"                                                                                                    ",
"                                                                                                    ",
"                                                                                                    ",
"                                                                                                    ",
"                                                                                                    ",
"                                                ..                                                  ",
"                                                ...                                                 ",
"                                               ....                                                 ",
"                                               .....                                                ",
"                                               .....                                                ",
"                                              .......                                               ",
"                                              .......                                               ",
"                                              .......                                               ",
"                                             .........                                              ",
"                                             .........                                              ",
"                                             ..........                                             ",
"                                             ..........                                             ",
"                                            ...........+                                            ",
"                                            .........@#$                                            ",
"                                            ........@%&*                                            ",
"                                           ........=-;***                                           ",
"                                           .......@>;****                                           ",
"                                           .......,'*****                                           ",
"                                          .......)!*******                                          ",
"                          .        ..............~;********                                         ",
"                     ...........................{&***************     **                            ",
"                    ..........................]@%****************************                       ",
"                     .........................^#/*****************************                      ",
"                      .......................@#;****************************                        ",
"                       .....................@^!****************************                         ",
"                        ....................@%;**************************                           ",
"                         ...................(&*************************                             ",
"                          ..................#*************************                              ",
"                           ................+_************************                               ",
"                             .............@:************************                                ",
"                              ............<************************                                 ",
"                               ..........=$***********************                                  ",
"                                .........#;**********************                                   ",
"                                  ......)[***********************                                   ",
"                                   .....{;**********************                                    ",
"                                   .....%***********************                                    ",
"                                   ....@[***********************                                    ",
"                                   ....}_***********************                                    ",
"                                   ....(&***********************                                    ",
"                                  .....,&************************                                   ",
"                                  .....|&************************                                   ",
"                                  .....<;************************                                   ",
"                                 ......>*************************                                   ",
"                                 ......1*************************                                   ",
"                                 .....@&*************************                                   ",
"                                 .....=;**************************                                  ",
"                                 .....+********     **************                                  ",
"                                 .....^******         ************                                  ",
"                                ......,'****           ***********                                  ",
"                                ......@!***             ***********                                 ",
"                                ......@>**                *********                                 ",
"                                .....]#&*                  ********                                 ",
"                               .......                      *******                                 ",
"                               ......                         ******                                ",
"                               .....                           ***                                  ",
"                               ....                                                                 ",
"                               ..                                                                   ",
"                                                                                                    ",
"                                                                                                    ",
"                                                                                                    ",
"                                                                                                    ",
"                                                                                                    ",
"                                                                                                    ",
"                                                                                                    ",
"                                                                                                    ",
"                                                                                                    ",
"                                                                                                    ",
"                                                                                                    ",
"                                                                                                    ",
"                                                                                                    ",
"                                                                                                    ",
"                                                                                                    ",
"                                                                                                    ",
"                                                                                                    ",
"                                                                                                    ",
"                                                                                                    ",
"                                                                                                    ",
"                                                                                                    ",
"                                                                                                    ",
"                                                                                                    ",
"                                                                                                    ",
"                                                                                                    ",
"                                                                                                    "};
