/* XPM */
static char * sun_xpm[] = {
"100 100 3 1",
" 	c None",
".	c #F6C358",
"+	c #FCD462",
"                                                                                                    ",
"                                                                                                    ",
"                                                                                                    ",
"                                                                                                    ",
"                                                                                                    ",
"                                                                                                    ",
"                                                                                                    ",
"                                                                                                    ",
"                                                .....                                               ",
"                                                .....                                               ",
"                                               ......                                               ",
"                                              ........                                              ",
"                                              .........                                             ",
"                                              .........                                             ",
"                                              .........                                             ",
"                                               ........                                             ",
"                                               ........                                             ",
"                  ........                     ........                                             ",
"                 ..........                    .......                       .....                  ",
"                 ............                   ....                      .........                 ",
"                 .............                     .                     ..........                 ",
"                 ..............                                          ..........                 ",
"                  .............                                         ...........                 ",
"                  ..............                                       ...........                  ",
"                   ..............                                      ..........                   ",
"                    ............          ++++++++++++++++++          ...........                   ",
"                     ...........       ++++++++++++++++++++++++        ........                     ",
"                      .........      +++++++++++++++++++++++++++       ........                     ",
"                        ......     +++++++++++++++++++++++++++++..      .....                       ",
"                                  +++++++++++++++++++++++++++++++..                                 ",
"                                 ++++++++++++++++++++++++++++++++...                                ",
"                                +++++++++++++++++++++++++++++++++....                               ",
"                               ++++++++++++++++++++++++++++++++++.....                              ",
"                              ++++++++++++++++++++++++++++++++++++....                              ",
"                             +++++++++++++++++++++++++++++++++++++.....                             ",
"                             +++++++++++++++++++++++++++++++++++++......                            ",
"                            ++++++++++++++++++++++++++++++++++++++......                            ",
"                            ++++++++++++++++++++++++++++++++++++++.......                           ",
"                            ++++++++++++++++++++++++++++++++++++++........                          ",
"                           +++++++++++++++++++++++++++++++++++++++........                          ",
"                           +++++++++++++++++++++++++++++++++++++++.........                         ",
"                           +++++++++++++++++++++++++++++++++++++++.........                         ",
"                           +++++++++++++++++++++++++++++++++++++++..........                        ",
"                          +++++++++++++++++++++++++++++++++++++++...........                        ",
"                          +++++++++++++++++++++++++++++++++++++++...........                        ",
"             ......       +++++++++++++++++++++++++++++++++++++++...........                        ",
"         ...........      +++++++++++++++++++++++++++++++++++++++...........        ......          ",
"        ..............    +++++++++++++++++++++++++++++++++++++++...........    ............        ",
"        ..............    +++++++++++++++++++++++++++++++++++++++..........     .............       ",
"        .............     +++++++++++++++++++++++++++++++++++++++..........    ...............      ",
"        .............     +++++++++++++++++++++++++++++++++++++++..........    ...............      ",
"        ...........       +++++++++++++++++++++++++++++++++++++++..........    ...............      ",
"            ......        +++++++++++++++++++++++++++++++++++++++..........     .............       ",
"                           +++++++++++++++++++++++++++++++++++++...........      ..........         ",
"                           +++++++++++++++++++++++++++++++++++++...........        .......          ",
"                           +++++++++++++++++++++++++++++++++++++...........                         ",
"                           ++++++++++++++++++++++++++++++++++++............                         ",
"                           ++++++++++++++++++++++++++++++++++++............                         ",
"                           +++++++++++++++++++++++++++++++++++.............                         ",
"                            ++++++++++++++++++++++++++++++++++.............                         ",
"                            +++++++++++++++++++++++++++++++++.............                          ",
"                             +++++++++++++++++++++++++++++++..............                          ",
"                             +++++++++++++++++++++++++++++++.............                           ",
"                              +++++++++++++++++++++++++++++..............                           ",
"                               +++++++++++++++++++++++++++..............                            ",
"                                +++++++++++++++++++++++++..............                             ",
"                                  ++++++++++++++++++++++..............                              ",
"                                   ++++++++++++++++++++..............                               ",
"                                   ++++++++++++++++++...............                                ",
"                         . .....    ++++++++++++++++..............      .....                       ",
"                       .........     ++++++++++++++..............       .......                     ",
"                      ..........      +++++++++++.............          ........                    ",
"                     ...........        +++++++............            ..........                   ",
"                    ...........           ...............               ..........                  ",
"                    ...........              .......                    ...........                 ",
"                   ............                                         ...........                 ",
"                   ............                                          ...........                ",
"                   ...........                   ...                     ...........                ",
"                   .........                     ....                     ..........                ",
"                   .........                    ......                    .........                 ",
"                    .......                    ........                     .......                 ",
"                     ....                      ........                      .....                  ",
"                                              ..........                                            ",
"                                              ..........                                            ",
"                                              ..........                                            ",
"                                              ..........                                            ",
"                                              ..........                                            ",
"                                               ........                                             ",
"                                               ........                                             ",
"                                                ......                                              ",
"                                                .....                                               ",
"                                                                                                    ",
"                                                                                                    ",
"                                                                                                    ",
"                                                                                                    ",
"                                                                                                    ",
"                                                                                                    ",
"                                                                                                    ",
"                                                                                                    ",
"                                                                                                    "};
