/* XPM */
static char * player1_xpm[] = {
"225 50 2 1",
" 	c None",
".	c #000000",
"                                                                                                                                                                                                                                 ",
"                                                                                                                                                                                                                                 ",
"                                                                                                                                                                                                                                 ",
"    ...........                    .....                       ...........                                                                       ...........                                                                     ",
"   ...............                .......                    ...............                                            ...............         ...............                                                                  ",
"   ..................             .......                   .................           .....            .....         .................        ..................                                              ......           ",
"   ....................           .......                 ....................         .......          .......       ..................        ....................                                           ........          ",
"   .....................          .......                 .....................        .......          .......      ...................        .....................                                          ........          ",
"   ......................         .......                ......................        .......          .......      ...................        ......................                                        .........          ",
"   .......................        .......                .......................       .......          .......      ...................        .......................                                       .........          ",
"   .......................        .......                .......................       .......          .......      ..................         .......................                                      ..........          ",
"   .......................        .......               ...........   ..........       .......          .......      .........                  .......................                                     ...........          ",
"   .......     ...........        .......               ..........     .........       ........        ........      ........                   .......     ...........                                     ...........          ",
"   .......       ..........       .......               .........       .........      ........        ........      .......                    .......       ..........                                   ............          ",
"   .......        .........       .......               ........         ........      ........        ........      .......                    .......        .........                                   ............          ",
"   .......        .........       .......               ........         ........      ........        ........      .......                    .......        .........                                   ............          ",
"   .......         ........       .......              .........          .......      ........        ........      .......                    .......         ........                                   ............          ",
"   .......         ........       .......              ........           ........     ........        ........      .......                    .......         ........                                   ............          ",
"   .......         ........       .......              ........           ........      .......       .........      .......                    .......         ........                                   ............          ",
"   .......        .........       .......              ........           ........      ........      .........      .......                    .......        .........                                   ............          ",
"   .......       ..........       .......              ........           ........      .......................      .......                    .......       ..........                                        .......          ",
"   .......      ..........        .......              ........           ........      .......................      .......                    .......      ..........                                         .......          ",
"   .......     ...........        .......              ...........................       ......................      ................           .......     ...........                                         .......          ",
"   .......................        .......              ...........................       .....................       .................          .....................                                           .......          ",
"   .......................        .......              ...........................       .....................       .................          .....................                                           .......          ",
"   ......................         .......              ...........................        ....................       .................          ....................                                            .......          ",
"   .....................          .......              ...........................         ...................       .................          ..................                                              .......          ",
"   ....................           .......              ...........................          ..................       .................          ...................                                             .......          ",
"   ...................            .......              ...........................                    ........       ................           ....................                                            .......          ",
"   ..................             .......              .......             .......                    ........       .......                    .....................                                           .......          ",
"   .......                        .......              .......             .......                    ........       .......                    .......    ...........                                          .......          ",
"   .......                        .......              .......             .......                   ........        .......                    .......      ..........                                         .......          ",
"   .......                        .......              .......             .......                   ........        .......                    .......        ........                                         .......          ",
"   .......                        .......              .......             .......                   ........        .......                    .......         ........                                        .......          ",
"   .......                        .......              .......             .......                   ........        .......                    .......          .......                                        .......          ",
"   .......                        .......              .......             .......                   ........        .......                    .......          ........                                       .......          ",
"   .......                        .......              .......             .......                  .........        .......                    .......           .......                                       .......          ",
"   .......                        .......              .......             .......      .......     ........         .......                    .......           .......                                       .......          ",
"   .......                        .......              .......             .......      ........   .........         ........                   .......           .......                                       .......          ",
"   .......                        .......              .......             .......      ....................         .........                  .......           .......                               .......................  ",
"   .......                        .................    .......             .......      ....................         ......................     .......           .......                              ......................... ",
"   .......                        ..................   .......             .......      ....................         .......................    .......           .......                              ......................... ",
"   .......                        ..................   .......             .......      ...................          .......................    .......           .......                              ......................... ",
"   .......                        ..................   .......             .......      ...................          .......................    .......           .......                              ......................... ",
"   .......                        ..................   .......             .......       .................            ......................    .......           .......                              ........................  ",
"   .......                         .................   .......             .......        ...............              .....................    .......           .......                               .......................  ",
"    .....                           ...............     .....               .....           ...........                 ...................      .....             .....                                                         ",
"                                                                                                                                                                                                                                 ",
"                                                                                                                                                                                                                                 ",
"                                                                                                                                                                                                                                 "};
