/* XPM */
static char * back_xpm[] = {
"200 50 2 1",
" 	c None",
".	c #993557",
"                                                                                                                                                                                                        ",
"                                                                                                                                                                                                        ",
"                                                                                                                                                                                                        ",
"                                                                                                                                                                                                        ",
"                                                                                            .......                                                                                                     ",
"   .....                                                                                   ................                                                                                             ",
"   ............                      .....                           .....                .....       ......                                 .......                                                    ",
"   ..............  ......            ..........        .......      ......               .....         .....                        ..............                                                      ",
"   ........ .....   .....            ...........     ......       ......                 .....          .....                ...........           ......                                               ",
"   .......   .....  ..... .....      .....          .....        .....                  .....           .....                     .....           ............                                          ",
"   .......    ..... ............     .....         .....        .....                   .....            .....                    .....           .....   .....                                         ",
"   .......    ..... .............    .....         .....       .....                    .....            .....                     .....          .....   .....                                         ",
"   ......     ..... .............    .....        .....        .....                    .....            .....                     .....         .....     .....                                        ",
"   ......   ....... ........ .....   .....        .....         .....                  .....              .....                    .....         .....     .....                                        ",
"   .............    .......  .....   .....        ......        .....                  .....              .....                    .....         .....     .....                                        ",
"   .....            ......   .....   .....         .......       ......                .....              .....                    .....        .....      .....                                        ",
"  ......            ......   .....   ..... .....     .......       ......               .....             .....                     .....       .....      .....                                        ",
"  .....             .....   ......   ............       .....        ......             .....             .....                     .....       .....      .....                                        ",
"  .....             ............     .....               .....         .....             .....            .....                     .....       .....      .....                                        ",
"  .....             .......          .....                .....        ......            ......   ......  .....                     .....       .....      .....                                        ",
"  .....            .........        .....                 .....         ......            ......    ...........                     .....        .....    .....                                         ",
"  .....            .........        .....                 .....          .....             ......   ..........                      .....        .....    .....                                         ",
" ......            ..........       .....                 .....          .....              .....    .........                     ......         .....  .....                                          ",
" ......            ..........       .....                 .....        ......                .....    .......                      ......         ...... .....                                          ",
" ......            ..... .....      .....               ......        ......                  .....    .....                        .....           .........                                           ",
" ......           ......  .....     .....           ........       .......                     ...... ......                                         .......                                            ",
"  .....           ......  .....     .....   ......                ......                         ............                                                                                           ",
"  .....           ......   .....    ..... ......                                                        .....                                                                                           ",
"                 ......    .......  ...........                                                         .....                                                                                           ",
"                 ......     ......  .....                                                                .....                                                                                          ",
"                 ......      .....  .....                                                               .....                                                                                           ",
"                 ......      ......                                                                                                                                                                     ",
"                 ......                                                                                     ........                                                                                    ",
"                 .....                                   ...........                                    .............       .....                                                                       ",
"                 .....                                  ......  ......                                  .....    .....      ......                    .....                                             ",
"                 .....                                 .....                                           ......    .....      .......         ......    .....   ......                                    ",
"                 .....                                .....                                           ......     .....      ........       .....      .....  .....                                      ",
"                                                     .....             .....                           .....     .....      .........      .....      ..... .....                                       ",
"                                                     .....           ...........                       .....   ......       .........     .....       ..........                                        ",
"                                                     .....           .....  ......                     ..... ............. ..... .....    .....       ........                                          ",
"                                                     .....          .....    .....                     ............  ........... .....    .....       .......                                           ",
"                                                     .....         ......    .....                     ......         ..........  .....   .....       ........                                          ",
"                                                     .....  ............     .....                      .....          .........   .....  .....       .........                                         ",
"                                                     .....     .........     .....                      .....          .........   ..... .....        ...........                                       ",
"                                                     .....     .........     .....                      .....          .........    ...........       ..... ......                                      ",
"                                                     ......   ..........     .....                      .....         .........................      ......   .....                                     ",
"                                                      ..................    .....                       .....        ..... .....          .....      .....     ......                                   ",
"                                                        .........  .....   ......                       .....       .....  .....           .....     .....                                              ",
"                                                                    ............                        .....     ......   .....            ..... .........                                             ",
"                                                                     .........                          ......  ......                       ..............                                             "};
