/* XPM */
static char * wins_xpm[] = {
"200 50 2 1",
" 	c None",
".	c #000000",
"                                                                                                                                                                                                        ",
"                                                                                                                                                                                                        ",
"                                                                                                                                                                                                        ",
"                                                                                                                                                                                                        ",
"                .....                           ......         .....                                          .........                                                                                 ",
"               .......                          .......       .......       ......         .....           .............                                                                                ",
"               .......                         ........       .......      ........       .......        ...............                                                                                ",
"               ........                        ........       .......      ........       .......       ................                                                                                ",
"               ........                        ........       .......      .........      .......       ................                                                                                ",
"               ........                        ........       .......      .........      .......      .................                                                                                ",
"               ........                        ........        .....       ..........     .......      ................                                                                                 ",
"               ........                        ........                    ..........     .......      .............                                                                                    ",
"               .........                      .........                    ...........    .......      ..........                                                                                       ",
"                ........                      ........         .....       ...........    .......      .........                                                                                        ",
"                ........                      ........        .......      ...........    .......      ........                                                                                         ",
"                ........                      ........        .......      ............   .......      .........                                                                                        ",
"                .........                    .........        .......      ............   .......      .........                                                                                        ",
"                .........                    .........        .......      ............   .......      ..........                                                                                       ",
"                 ........                    ........         .......      .............  .......      ............                                                                                     ",
"                 .........                  .........         .......      .............  .......      .............                                                                                    ",
"                 .........                  .........         .......      .............  .......       ...............                                                                                 ",
"                 .........                  .........         .......      .............. .......       .................                                                                               ",
"                  ........                  ........          .......      .............. .......        ..................                                                                             ",
"                  ........                 .........          .......      ......................         ..................                                                                            ",
"                  ........                 .........          .......      ......................          ..................                                                                           ",
"                   ........    .......     ........           .......      ......................           ..................                                                                          ",
"                   ........   .........   .........           .......      ......................             ................                                                                          ",
"                   ........  ...........  .........           .......      ......................                ..............                                                                         ",
"                   ........ ............. .........           .......      ......................                  ............                                                                         ",
"                   ........ ............. ........            .......      ....... ..............                    ...........                                                                        ",
"                   ...............................            .......      ....... ..............                     ..........                                                                        ",
"                    ..............................            .......      .......  .............                      .........                                                                        ",
"                    .............................             .......      .......  .............                      .........                                                                        ",
"                    .............................             .......      .......   ............                       ........                                                                        ",
"                    .............................             .......      .......   ............                       ........                                                                        ",
"                    .............................             .......      .......    ...........     ......            ........                                                                        ",
"                    .............................             .......      .......    ...........    ........           ........                                                                        ",
"                    ............................              .......      .......    ...........    ........          .........                                                                        ",
"                     ............. .............              .......      .......     ..........    ..........       ..........                                                                        ",
"                     ............. .............              .......      .......     ..........    ............. .............                                                                        ",
"                     ...........     ...........              .......      .......      .........    ...........................                                                                        ",
"                     ..........       ..........              .......      .......      .........    ..........................                                                                         ",
"                     ..........       ..........              .......      .......       ........    ..........................                                                                         ",
"                      ........         ........               .......      .......       ........     ........................                                                                          ",
"                      .......           .......               .......      .......        .......      ......................                                                                           ",
"                      .......           .......                .....        .....         ......         ...................                                                                            ",
"                                                                                                            .............                                                                               ",
"                                                                                                                                                                                                        ",
"                                                                                                                                                                                                        ",
"                                                                                                                                                                                                        "};
