/* XPM */
static char * start_option_xpm[] = {
"200 50 2 1",
" 	c None",
".	c #000000",
"                                                                                                                                                                                                        ",
"                                                                                                                                                                                                        ",
"                                                                                                                                                                                                        ",
"                                                                                                                                                                                                        ",
"                                                                                                                                                                                                        ",
"                                                                                                                  ..........                                                                            ",
"                                                                                        ..........              ..............                                                                          ",
"                       ..............          ..........................           ...............           .................                                                                         ",
"                     ................          ..........................         ..................          ..................            ...........................                                 ",
"                    .................          ..........................        ....................        ....................           ...........................                                 ",
"                    .................          ..........................       .....................        .....................          ...........................                                 ",
"                    .................          ..........................       ......................       .....................          ...........................                                 ",
"                    .................          ..........................      .......................       .....................          ...........................                                 ",
"                    .................          ..........................      .......................       .........  ..........          ...........................                                 ",
"                    .........                           .......                ...........   ..........      ........    .........          ...........................                                 ",
"                    ........                            .......               ..........      .........      ........     ........                   .......                                            ",
"                    ........                            .......               .........       .........      .......       .......                   .......                                            ",
"                    .........                           .......               .........        ........      .......      ........                   .......                                            ",
"                    ..........                          .......               ........         ........      .......    ..........                   .......                                            ",
"                    ..........                          ........              ........         ........      ....... .............                   .......                                            ",
"                    ............                        ........              ........          .......      .....................                   .......                                            ",
"                     .............                      ........              .......           .......      .....................                   .......                                            ",
"                     ................                   ........              .......           .......      .......................                 .......                                            ",
"                      ...................               ........              .......           .......      ........................                .......                                            ",
"                      ....................              ........              .........................      .........................               .......                                            ",
"                       .....................             .......              .........................      ..........................              .......                                            ",
"                        ....................             .......              .........................      ..........................              .......                                            ",
"                          ...................            ........             .........................      ...........................             .......                                            ",
"                            .................            ........             .........................      ........       ............             .......                                            ",
"                               ..............            ........             .........................      ........         ..........             .......                                            ",
"                                   ..........            ........             .........................      ........          .........             .......                                            ",
"                                    .........            ........             ..........        .......      ........           .........            .......                                            ",
"                  ........           ........            ........             .......           .......      ........           .........            .......                                            ",
"                  .........         .........             .......             .......           .......      ........            ........            .......                                            ",
"                  ...........      ..........             .......             .......           .......       .......            ........            .......                                            ",
"                  ...........................             .......             .......           .......       .......            ........            .......                                            ",
"                  ...........................             .......             .......           .......       .......            ........            .......                                            ",
"                  ...........................             .......             .......           .......       .......             .......            .......                                            ",
"                  ..........................              .......             .......           .......       .......             .......            .......                                            ",
"                    .......................               .......             .......           .......       .......             .......            .......                                            ",
"                     ......................               .......             .......           .......       .......             .......            .......                                            ",
"                       ..................                 .......             .......           .......                                                                                                 ",
"                                                          .......                                                                                                                                       ",
"                                                                                                                                                                                                        ",
"                                                                                                                                                                                                        ",
"                                                                                                                                                                                                        ",
"                                                                                                                                                                                                        ",
"                                                                                                                                                                                                        ",
"                                                                                                                                                                                                        ",
"                                                                                                                                                                                                        "};
